<svg xmlns="http://www.w3.org/2000/svg" width="576" height="559" viewBox="0 0 690 670"><defs><clipPath id="__lottie_element_2"><path d="M0 0h690v670H0z"/></clipPath></defs><g clip-path="url(#__lottie_element_2)" display="block"><path fill="none" stroke="#000" stroke-miterlimit="10" d="M526.953 366.37c-26.812 0-48.547-21.735-48.547-48.547v-124.91c0-26.812 21.735-48.547 48.547-48.547s48.547 21.735 48.547 48.547v124.91c0 26.812-21.735 48.547-48.547 48.547zm0-245.607c-26.812 0-48.547-21.735-48.547-48.547v-367.822c0-26.812 21.735-48.547 48.547-48.547s48.547 21.735 48.547 48.547V72.216c0 26.812-21.735 48.547-48.547 48.547zM405.984 389.938c-26.812 0-48.547-21.735-48.547-48.547V200.362c0-26.811 21.735-48.547 48.547-48.547s48.547 21.736 48.547 48.547v141.029c0 26.812-21.735 48.547-48.547 48.547zm0-262.143c-26.812 0-48.547-21.735-48.547-48.547s21.735-48.547 48.547-48.547 48.547 21.735 48.547 48.547-21.735 48.547-48.547 48.547zm0-116.686c-26.812 0-48.547-21.735-48.547-48.547v-234.598c0-26.812 21.735-48.547 48.547-48.547s48.547 21.735 48.547 48.547v234.598c0 26.812-21.735 48.547-48.547 48.547zM285.016 404.513c-26.812 0-48.547-21.735-48.547-48.547V249.252c0-26.812 21.735-48.547 48.547-48.547s48.547 21.735 48.547 48.547v106.714c0 26.812-21.735 48.547-48.547 48.547zm0-222.003c-26.812 0-48.547-21.735-48.547-48.547V-82.595c0-26.812 21.735-48.547 48.547-48.547s48.547 21.735 48.547 48.547v216.558c0 26.812-21.735 48.547-48.547 48.547zM164.047 53.205c-26.812 0-48.547-21.735-48.547-48.547V-208.84c0-26.811 21.735-48.547 48.547-48.547s48.547 21.736 48.547 48.547V4.658c0 26.812-21.735 48.547-48.547 48.547zm0 285.691c-26.812 0-48.547-21.735-48.547-48.547V125.3c0-26.812 21.735-48.548 48.547-48.548s48.547 21.736 48.547 48.548v165.049c0 26.812-21.735 48.547-48.547 48.547z"/><path fill="#c4d017" d="M526.953 667c-26.812 0-48.547-21.735-48.547-48.547V436.486c0-26.812 21.735-48.548 48.547-48.548s48.547 21.736 48.547 48.548v181.967c0 26.812-21.735 48.547-48.547 48.547m-120.969-.001c-26.812 0-48.547-21.735-48.547-48.547V460.296c0-26.811 21.735-48.547 48.547-48.547s48.547 21.736 48.547 48.547v158.156c0 26.812-21.735 48.547-48.547 48.547M285.016 667c-26.812 0-48.547-21.735-48.547-48.547v-141.98c0-26.812 21.735-48.547 48.547-48.547s48.547 21.735 48.547 48.547v141.98c0 26.812-21.735 48.547-48.547 48.547"/><g fill="#c4d017"><path d="M164.047 667c-26.812 0-48.547-21.735-48.547-48.547V410.299c0-26.812 21.735-48.547 48.547-48.547s48.547 21.735 48.547 48.547v208.154c0 26.812-21.735 48.547-48.547 48.547"/><path d="M164.047 667c-26.812 0-48.547-21.735-48.547-48.547V410.299c0-26.812 21.735-48.547 48.547-48.547s48.547 21.735 48.547 48.547v208.154c0 26.812-21.735 48.547-48.547 48.547"/></g></g></svg>