<svg width="308" height="206" fill="none" xmlns="http://www.w3.org/2000/svg"><g clip-path="url(#clip0_1013_6844)"><path d="M36.488 175.24s-33.034-38.614-5.586-80.418c24.354-37.092 52.75-34.556 73.582-19.503 8.872 6.411 42.688 4.91 71.674-26.565 30.857-33.51 112.726-20.803 98.405 48.547-7.973 38.613 27.639 39.714 8.928 78.02L36.49 175.24h-.002z" fill="#9AEFE1"/><path d="M42.726 77.678s-7.875 8.827-8.254 12.203c-.38 3.375 3.749 8.657 3.749 8.657l4.504-20.861.001.001z" fill="#AA413E"/><path d="M46.048 170.727s.22 3.314.705 4.594H56.6c-.166-.425-.554-.972-1.451-1.145-1.544-.296-4.124-1.488-5.058-3.732-.982-2.36-4.044.283-4.044.283zm-11.739-.045s.226 3.359.71 4.639h9.848c-.166-.425-.552-.972-1.45-1.145-1.543-.296-4.124-1.488-5.058-3.732-.983-2.359-4.05.238-4.05.238z" fill="#163560"/><path d="M51.944 119.393s-1.38 9.712-6.527 26.953c-5.148 17.241-5.85 24.706-5.85 24.706l-5.523-.17s-.047-18.842 2.325-27.512c2.372-8.669.513-31.254.513-31.254l15.062 7.278v-.001z" fill="#163560"/><path d="M54.631 112.647s.196 14.636-2.105 32.605c-2.302 17.97-1.522 25.598-1.522 25.598l-5.511.203s-3.294-17.977-2.35-26.971-4.51-30.864-4.51-30.864l15.998-.571z" fill="#1C468A"/><path d="M43.962 78.397l2.938 2.119 4.244-.87c-.06-.376-.34-1.94-.594-3.355-.014-.083-.03-.167-.045-.248l-.407-2.239-3.963-1.924-1.478-.717c.005.025.115 1.336.13 1.528.277 3.4-.823 5.707-.823 5.707l-.002-.001z" fill="#FFB27D"/><path d="M36.516 114.454c.852 4.279 15.036 4.785 18.693.902.415-.443.436-2.502.279-5.28-.307-5.425-1.293-13.586-1.33-17.757-.02-2.013-.271-4.073-.606-5.943-.712-3.986-1.799-7.114-1.799-7.114s-6.928-2.465-8.224-2.046c-6.245 2.02-7.865 32.957-7.013 37.236v.002z" fill="#C65447"/><path d="M55.49 110.076c-.308-5.425-1.293-13.586-1.331-17.757-.02-2.013-.27-4.073-.605-5.943l-4.168-.81s-4.075 18.315 6.103 24.509v.001z" fill="#AA413E"/><path d="M53.232 102.514s-.283.748.313 1.249c.596.502.984 1.314.847 1.908-.136.594-1.445 1.563-1.899 1.407-.453-.157-1.377-.939-1.277-1.253.1-.314-.621-2.749.484-3.688 1.106-.937 1.532.376 1.532.376v.001z" fill="#FFB27D"/><path d="M48.572 78.165s4.065.838 7.303 6.09c3.239 5.25 5.37 9.156 4.773 11.049-.596 1.893-6.034 8.458-6.972 8.458-.939 0-2.451-.751-2.537-2.438 0 0 3.829-6.315 3.076-7.26-.322-.405-4.971-4.557-5.635-2.681-1.099 3.103-.009-13.218-.009-13.218h.002z" fill="#C65447"/><path d="M45.082 72.75c.87 1.621 4.113 3.025 5.466 3.541l-.046-.248-.407-2.24-3.963-1.923c-.877-.013-1.41.202-1.05.871v-.001z" fill="#FCA56B"/><path d="M51.59 73.539s-6.385 2.192-7.564-2.204c-1.18-4.397-2.798-7.074 1.229-8.66 4.027-1.585 5.272-.165 5.99 1.197s1.975 8.985.345 9.668v-.001z" fill="#FFB27D"/><path d="M50.995 63.447s-.406 5.116-1.368 4.893c-.962-.221-1.833-.387-1.693 1.156.14 1.542 1.474 3.323-1.49 3.596-2.963.272-7.222-8.136-6.408-9.729 2.348-4.594 14.353-5.521 10.958.084h.002z" fill="#163560"/><path d="M50.056 77.328c-.082-.038-5.11-1.67-5.657-1.472-.546.198-.87 1.36-.87 1.36l8.224 2.046s-.647-1.449-1.697-1.936v.002z" fill="#AA413E"/><path d="M231.974 36.565H138.57v65.78h93.404v-65.78z" fill="#54B0A5"/><path d="M228.74 39.983h-86.937v58.942h86.937V39.983z" fill="#fff"/><path d="M210.675 172.926h-2.05l-12.813-4.423a13.516 13.516 0 01-9.113-12.774v-54.397c0-.767-.591-1.427-1.359-1.464a1.426 1.426 0 00-1.496 1.423v54.437c0 5.763-3.66 10.893-9.114 12.774l-12.814 4.423h-2.333c-.768 0-1.429.589-1.466 1.356a1.427 1.427 0 001.425 1.495h8.333c.755 0 1.406-.571 1.459-1.322a1.42 1.42 0 00-.294-.972l9.415-3.25a20.892 20.892 0 0113.627 0l9.196 3.174a1.413 1.413 0 00-.36.997c.028.773.692 1.374 1.466 1.374h8.328c.811 0 1.464-.676 1.424-1.494-.036-.767-.697-1.357-1.465-1.357h.004z" fill="#54B0A5"/><path d="M233.211 36.565h-1.236v65.78h1.236v-65.78zm-46.512 65.78h-2.853v2.644h2.853v-2.644z" fill="#35488B"/><path d="M161.625 55.7c-.515.435-1.556 1.253-1.973 1.6l1.054 13.17-10.852-4.846-1.974 1.601a13.195 13.195 0 00-.402 3.244c0 7.296 5.922 13.21 13.228 13.21s13.228-5.914 13.228-13.21c0-7.295-5.003-14.768-12.309-14.768v-.002z" fill="#82B378"/><path d="M157.384 54.592c-5.714.45-10.407 4.526-11.771 9.925l12.826 3.244 1.973-1.601-3.028-11.568z" fill="#AA413E"/><path d="M162.68 55.658c-.356 0-.707.015-1.055.043l1.055 13.168-12.826-3.243a13.194 13.194 0 00-.403 3.243c0 7.296 5.923 13.21 13.229 13.21 7.305 0 13.228-5.914 13.228-13.21 0-7.295-5.923-13.21-13.228-13.21z" fill="#A8D29F"/><path d="M159.358 52.99a13.23 13.23 0 00-11.772 9.926l12.826 3.243-1.054-13.168z" fill="#C65447"/><path d="M157.781 58.034a.175.175 0 01-.124-.3l7.898-7.886h50.798c.097 0 .174.078.174.175a.173.173 0 01-.174.174h-50.652l-7.797 7.785a.176.176 0 01-.123.052zm15.415 14.693a.175.175 0 01-.124-.299l8.503-8.49h37.441a.174.174 0 110 .349H181.72l-8.4 8.387a.174.174 0 01-.123.052l-.001.001z" fill="#F1A34F"/><path d="M215.916 48.553h-49.922a.805.805 0 110-1.609h49.922a.805.805 0 110 1.609zm1.613 14.308H181.97a.805.805 0 110-1.609h35.559a.804.804 0 110 1.609zm-29.381 5.473h11.79c.558 0 1.011.453 1.011 1.01v20.92c0 .556-.453 1.01-1.011 1.01h-11.79a1.012 1.012 0 01-1.012-1.01v-20.92c0-.557.454-1.01 1.012-1.01zm29.174 22.939h-11.844a1.011 1.011 0 01-1.012-1.01V69.344c0-.557.453-1.01 1.012-1.01h11.791c.558 0 1.01.45 1.012 1.007l.053 20.92c0 .558-.453 1.011-1.012 1.011v.001z" fill="#AFCDFB"/><path d="M254.914 162.264l-1.753 7.375-2.626-.015-.097-7.36h4.476zm-22.092.315l-4.99 7.06-1.945-2.493 3.003-5.538 3.932.971z" fill="#E49963"/><path d="M245.793 65.353c.906-.515 1.993-.57 2.753-.526-.195-.203-.58-.276-.58-.276.472-.07 1.523.397 1.523.397 6.556-2.522 7.587 7.117 7.449 9.356-.137 2.24 2.202 2.971 5.614 4.735 6.507 3.367 7.079 7.875 7.079 7.875a3.19 3.19 0 00-.16.103c-.323-.547-.986-1.572-1.547-1.728.02.05.662 1.412.901 2.194-1.919 1.46-5.511 4.69-8.015 6.98.012-.447-.007-1.084-.17-1.42l-.31 1.86a385.677 385.677 0 00-2.263 2.094c.166-1.81-8.196-11.359-12.559-14.22-1.062-1.562-1.439-4.319-1.467-4.535.184 2.186.558 3.413.893 4.104-3.695-3.395-1.543-15.63.86-16.995l-.001.002z" fill="#163560"/><path d="M245.765 82.922c-.022.01 2.106 1.114 3.707.677 1.505-.411 2.489-2.36 2.468-2.364-.637-.126-.821-1.002-.807-4.762l-.288.057-4.848.96a49 49 0 00.113 2.957c.003 1.206-.07 2.348-.346 2.477l.001-.002z" fill="#E49963"/><path d="M251.247 66.93s-2.391-2.54-5.393-.13c0 0 1.748-.302 5.393.13z" fill="#E37970"/><path d="M245.999 77.488a49 49 0 00.113 2.958c2.712-.077 4.145-2.547 4.733-3.917l-4.848.959h.002z" fill="#D68D5D"/><path d="M251.346 76.002s1.421-2.242 1.762-4.16c.244-1.37-.455-6.444-5.561-5.713 0 0-1.484.146-2.877 1.086-1.109.748-2.71 2.363-.92 6.791l.465 1.496 7.132.5h-.001z" fill="#163560"/><path d="M226.679 165.21l2.57.079 2.781.086s6.423-7.142 10.027-18.592c.084-.265.173-.535.266-.808 1.972-5.743 6.06-12.95 8.215-19.473.342-1.04.65-2.018.926-2.943.088-.296.175-.588.257-.874 1.588-5.509 2.047-9.126 2.472-12.99l-15.558.125s-2.511 26.387-11.956 55.392v-.002z" fill="#2B478B"/><path d="M240.813 100.892c.04 7.392-1.085 10.564-1.085 10.564s6.661 3.379 14.578.892c.094-.029 6.556-1.502 6.556-1.502-.133-.299-1.31-5.28-1.44-5.555-1.671-3.584-2.94-5.156-3.138-6.257-.367-2.057-.376-4.185-.192-6.193.483-5.314 1.919-9.727 1.919-9.727-2.157-.49-4.176-1.35-6.422-2.192-.517.642-2.095 1.314-3.464 1.283-1.577-.035-2.088-.708-2.006-1.444-1.68.934-3.022 1.815-3.022 1.815-1.429 2.477-4.325 4.883-4.535 8.683-.051.934 2.253 9.426 2.254 9.633h-.003z" fill="#E7F1FD"/><path d="M231.782 89.91c2.284-2.665 8.2-8.441 14.306-9.15l-5.269 10.25s-.296 1.756-1.856 2.78c-3.823 2.508-8.68 3.616-8.68 3.616s-3.291-1.434-7.789-4.725c-1.412-1.033-3.893-4.974-3.893-4.974l.669-2.236s4.213 2.352 5.717 3.03c.858.387 2.831 1.31 4.224 1.962a2.171 2.171 0 002.572-.555l-.001.002z" fill="#A8D29F"/><path d="M245.093 78.846s6.417.105 6.421-3.886c.005-3.992.836-6.667-3.261-6.903-4.097-.236-4.895 1.286-5.221 2.618-.326 1.331.392 8.04 2.061 8.17z" fill="#E49963"/><path d="M245.33 67.959s1.758 4.684 4.454 5.376c2.697.692 3.867-.03 3.867-.03s-2.068-1.64-2.498-4.505c0 0-4.497-3.07-5.823-.841z" fill="#163560"/><path d="M245.765 68.338s-1.313 1.046-1.631 2.062c-.321 1.017-.465 3.11-1.075 3.039 0 0-1.324-3.184.164-4.985 1.577-1.909 2.543-.115 2.543-.115h-.001z" fill="#163560"/><path d="M219.269 85.471s-.905-3.255-4.49-2.796c-.411.129-1.614.607-.844 1.891.567.948.812.46 1.702 1.732.891 1.273 1.858 1.56 2.962 1.408l.67-2.236v.001zm33.98 83.756s-.212 1.46.335 3.023c0 0 .43 1.957-1.5 1.992-1.929.036-2.402-.145-2.183-1.345.218-1.199.634-3.273.634-3.273l2.715-.397h-.001z" fill="#E49963"/><path d="M249.718 175.078s.042.025.122.064h3.776c.073-.038.107-.064.107-.064.219-.981-.138-2.829-.138-2.829-2.185 1.999-3.552-.05-3.552-.05-.356.855-.315 2.877-.315 2.877v.002z" fill="#82B378"/><path d="M221.239 173.094s3.557-3.942 4.648-5.948l2.645 1.354-5.912 5.544-1.384-.182v-.767l.003-.001z" fill="#E49963"/><path d="M219.032 175.142h4.867c.468-.35.906-1.159 1.451-2.246.289-.579.941-.899 1.611-1.075v3.283h1.009l.956-3.49c.628-1.155.05-2.204-.394-3.116-.515 0-1.902.351-4.529 3.307-.863.971-1.818 1.318-2.764 1.287a.162.162 0 01-.038.021c-1.584.711-2.038 1.595-2.167 2.028l-.002.001z" fill="#82B378"/><path d="M246.116 80.76s-3.712 9.159-3.822 11.012c-.109 1.854-.437 30.313-.437 30.313s.219 1.308-2.293.764c-2.512-.546-3.167-1.091-3.167-1.091s2.403-17.555 1.748-23.661c-.655-6.106 5.022-16.065 5.022-16.065l2.949-1.273z" fill="#A8D29F"/><path d="M229.249 165.289l2.781.085s6.423-7.142 10.027-18.592c.084-.265.173-.535.266-.808 1.972-5.742 6.061-12.95 8.215-19.472a115.513 115.513 0 001.184-3.817l-2.291-1.737s-6.879 11.122-9.008 21.589c-1.851 9.092-9.258 20.032-11.176 22.752h.002z" fill="#233862"/><path d="M236.552 96.398l.135.415 7.2-2.338s.095-.111.045-.257c-.054-.16-.18-.158-.18-.158l-7.2 2.338z" fill="#163560"/><path d="M249.191 143.511c-.04 5.09.219 16.792.883 21.637h2.464c1.361 0 2.041-.019 2.041-.019 1.665-8.423 2.85-15.393 3.712-21.399.708-4.929 1.337-9.154 1.821-12.792.488-3.66.826-6.725.948-9.315a42.087 42.087 0 00.045-2.318l-13.441-1.308c.169 8.918 1.551 22.556 1.529 25.516l-.002-.002z" fill="#2B478B"/><path d="M252.538 165.148c1.361 0 2.041-.019 2.041-.019 1.666-8.423 2.851-15.393 3.713-21.399.708-4.929 1.336-9.154 1.821-12.792.487-3.66.825-6.725.947-9.315l-4.933 2.898s3.149 1.108 1.947 9.505c-1.201 8.396-3.863 29.935-5.534 31.124l-.002-.002z" fill="#233862"/><path d="M251.902 121.541s.947 3.417 4.222 2.98c3.277-.435 7.935-2.399 7.935-2.399s-1.4-4.417-3.14-10.221c-2.107-7.026-4.717-16.083-5.946-21.794-.345-1.602-.582-2.938-.668-3.895l-2.718-5.266s-4.052 9.082-4.271 11.372c-.219 2.29 4.586 29.223 4.586 29.223z" fill="#A8D29F"/><path d="M255.174 91.976l-3.588-11.03c.011.004 4.531 1.343 6.804 2.49 0 0 1.422 1.83 2.301 6.052 0 0 .93 10.136-1.145 13.843 0 0-6.551 1.308-17.035-2.291v-2.399s11.465.6 13.813.873l-1.151-7.538h.001z" fill="#E49963"/><path d="M252.047 97.116c.147 3.707 1.021 10.904 8.808 14.757l.062.029c-2.107-7.026-4.717-16.082-5.946-21.794-1.43 2.135-3.004 4.968-2.925 7.01l.001-.002z" fill="#82B378"/><path d="M251.586 80.946s6.65.468 8.25 4.03c1.603 3.562 2.112 15.41.074 18.901 0 0-2.806.797-7.77-.13l-.184-.035s-1.583-3.871-.164-4.634c0 0 4.185.219 3.749-1.163-.436-1.381-3.956-16.97-3.956-16.97h.001z" fill="#A8D29F"/><path d="M243.687 99.28s-.913-1.105-1.108-2.233c-.196-1.129-.799-1.965-2.376-2.172-1.578-.206-2.255-.228-2.25.215.004.444 1.288 3.541 3.551 5.392 2.263 1.85 2.183-1.201 2.183-1.201z" fill="#E49963"/><path d="M236.033 96.798l.518-.4.134.413-.652-.013zM217.04 86.006a.303.303 0 01-.157-.044L174.832 60.43a.303.303 0 11.316-.517l42.05 25.534a.302.302 0 01-.157.56h-.001z" fill="#163560"/><path d="M93.009 76.141l-.005.753s.206 2.352-2.695 2.695c-2.9.345-5.277.3-5.2-1.516.262-1.405.73-3.587.75-4.75a8.137 8.137 0 00-.103-1.408l5.62-.111 1.655.27-.022 4.067z" fill="#FFB27D"/><path d="M93.03 72.073l-.023 4.068a4.759 4.759 0 01-2.025.446c-2.583 0-4.251-1.892-5.125-3.264a8.126 8.126 0 00-.103-1.408l5.62-.111 1.655.27z" fill="#E2915A"/><path d="M85.324 71.013c.652 3.505 5.18 3.39 7.137 3.17.55-.062.897-.133.897-.133.622-.165.968-1.142 1.128-2.42.319-2.532-.084-6.248-.512-7.2-.645-1.43-1.86-2.976-6.42-1.86-4.56 1.117-3.067 3.953-2.23 8.443z" fill="#FFB27D"/><path d="M81.619 175.321h6.416c-.049-.336-.212-1.358-.511-2.299a6.646 6.646 0 00-.363-.923c-.624-1.243-4.588-.453-4.588-.453s-.368.315-.654 1.518c-.128.529-.24 1.233-.299 2.157h-.001zm19.536-2.022c.017.872.128 1.696.443 2.022h12.691c-.161-.459-.618-1.148-1.921-1.359-1.48-.239-3.788-.952-5.135-2.373-.48-.506-.837-1.101-.994-1.798-.598-2.654-4.937.812-4.937.812s-.175 1.398-.147 2.696z" fill="#233862"/><path d="M92.567 144.042c.176.972.29 1.77.319 2.34.404 7.859 6.624 25.827 7.737 26.245 1.721.648 4.434-.73 5.852-1.182.588-.187.984-.778.854-1.38-3.081-14.142-4.214-34.506-4.625-46.563-.208-6.073-1.252-10.268-1.252-10.268s-15.173-4.043-15.263 1.07c-.079 4.525 5.026 22.271 6.38 29.736l-.002.002z" fill="#2B478B"/><path d="M92.567 144.042l10.135-20.539c-.208-6.073-1.252-10.268-1.252-10.268s-15.173-4.043-15.262 1.071c-.08 4.525 5.025 22.27 6.379 29.736z" fill="#233862"/><path d="M95.943 114.323l-8.021 58.051s-3.523.847-6.262.17c0 0-2.348-30.875-2.153-38.337.196-7.465-1.686-19.973.43-21.352 2.114-1.38 16.004 1.47 16.004 1.47l.002-.002z" fill="#2B478B"/><path d="M95.373 61.094S93.366 60.94 91 59.912c-1.921-.834-4.346.085-5.133.499.02-.126.072-.3.192-.472 0 0-.354.25-.405.6-.037.026-.053.045-.042.05 0 0-.401-.072-.658.043 0 0 .18-.026.243.09a.152.152 0 00.03.032c-2.997 1.446-3.273 6.177-2.31 7.27 1.16 1.317 2.552 4.283 2.552 4.283s.508-.701.297-1.86c-.212-1.158.791-1.158 2.057-1.685 1.266-.526.212-2.001 1.319-2.896 1.107-.896 5.169-.368 5.116-1.053 1.508-.548 1.118-3.563 1.118-3.717l-.002-.002z" fill="#233862"/><path d="M84.425 79.082l1.848 39.567s15.412.251 14.973-3.232c-.441-3.483-5.556-35.124-5.556-35.124L84.427 79.08h-.002z" fill="#E9F3FE"/><path d="M78.923 101.509c.916 2.747-.812 11.965-1.429 15.087-.135.66-.226 1.052-.226 1.052 2.135 3.468 9.952 3.422 9.952 3.422 1.504-6.635 2.285-17.203 2.285-17.203l-5.999-26.256-7.547 6.965s.572 4.249 1.278 8.572c.556 3.422 1.188 6.905 1.684 8.361h.002z" fill="#22407A"/><path d="M91.749 71.59s.147.451 1.29.287c0 0 .958-.138.888-.642 0 0-.965-.284-2.177.355h-.001z" fill="#fff"/><path d="M100.412 79.646l.002.016c.365.354 10.655 10.328 12.647 14.236 2.03 3.964-9.275 11.86-9.275 11.86s-.727.287-1.232.174c.533 4.382 1.131 8.426.777 10.152-.64 3.119-3.53 4.168-3.53 3.927 0-.076-.745-11.375-1.632-17.21-1.966-12.953-4.313-25.11-4.313-25.11 3.365.35 6.554 1.955 6.554 1.955h.002zm6.126 15.964c.015-.015.015-.046.015-.06 0-.57-2.181-1.832-4.541-3.317l-.045-.046c-.002 0-.003-.001-.005-.003a35.469 35.469 0 01-.035 3.514c-.134 2.057.016 4.515.264 7.018 1.124-1.752 4.125-6.46 4.346-7.106h.001z" fill="#22407A"/><path d="M83.99 77.563c-.02-.379 1.772-.9 1.772-.9s2.05 2.84 5.428 2.888c0 0-.962 1.871-2.097 2.355 0 0-4.992-2.1-5.103-4.344z" fill="#D9E9F9"/><path d="M95.931 106.293a3.728 3.728 0 01-1.19 2.414l-1.076.988a.63.63 0 01-.92-.073l-1.332-1.688a2.24 2.24 0 01-.47-1.598c.125-1.278.357-3.74.542-6.115.15-1.924.271-3.796.282-4.932.029-3.632-.692-15.214-.692-15.214l.872.045s2.166 4.496 3.3 10.614c.28 1.506.495 3.11.602 4.77 0 0 .455 6.614.082 10.792v-.003z" fill="#C65447"/><path d="M95.932 106.293a3.729 3.729 0 01-1.191 2.414l-1.075.988a.63.63 0 01-.921-.073l-1.332-1.688a2.24 2.24 0 01-.47-1.598c.125-1.277.357-3.74.542-6.115 2.41-2.703 3.386-6.44 3.76-9.488.281 1.506.496 3.109.603 4.769 0 0 .455 6.615.082 10.793l.002-.002z" fill="#BA4C43"/><path d="M91.188 79.485s1.789-1.059 1.796-2.207c0 0 1.156-.145 1.661.415 0 0 .425 1.968-.138 3.11 0 0-2.577-.391-3.317-1.318h-.002z" fill="#D9E9F9"/><path d="M89.974 79.315l2.426-.58s.317.027.308.422c-.008.394-.682 1.547-.982 1.64-.3.092-2.326-.684-1.752-1.482z" fill="#BA4C43"/><path d="M84.272 77.368c-.02-.379 1.194-1.156 1.194-1.156S87.812 78.95 91.19 79c0 0-.962 1.87-2.097 2.355 0 0-4.71-1.745-4.821-3.987z" fill="#E9F3FE"/><path d="M91.188 79s1.81-.958 1.815-2.106c0 0 1.093.48 1.598 1.04 0 0 .467 1.241-.095 2.385 0 0-2.578-.391-3.318-1.318v-.002z" fill="#E9F3FE"/><path d="M104.509 106.4c0-1.009-.888-1.818-1.887-1.667-.278.042-.527.156-.701.385-.687.914-1.34 3.571-.123 3.696.496.05 1.132-.297 1.623-.669.498-.378 1.088-.969 1.088-1.594v-.151z" fill="#FFB27D"/><path d="M77.494 116.596c2.21-2.296 6.028-6.816 5.893-10.523-.18-5.194-6.148-12.925-6.148-12.925.556 3.423 1.188 6.905 1.684 8.362.916 2.746-.812 11.964-1.429 15.086z" fill="#233862"/><path d="M77.564 107.562s1.59.793 2.554.395c.965-.395 2.099-.695 3.178.531 1.078 1.226 1.305 2.075 1.078 2.528-.228.454-2.74.283-3.157 0-.418-.283-1.077-.981-1.495-.859-1.155.336-2.127-.544-2.672-1.245-.329-.422.558-.628.516-1.352l-.002.002z" fill="#FFB27D"/><path d="M83.507 77.61s-6.327.7-7.82 3.451c-1.492 2.751-9.251 13.904-8.997 18.538.254 4.634 10.585 9.831 10.585 9.831s2.288-.965 2.322-2.005c.034-1.038-7.142-7.247-6.707-8.406.435-1.158 8.337-10.322 9.099-13.343.762-3.02 1.517-8.065 1.517-8.065h.001z" fill="#22407A"/><path d="M101.968 92.186l.046.045c2.36 1.486 4.541 2.747 4.541 3.317.315-1.006-2.751-5.209-3.744-6.065-1.007-.871-.841 2.701-.841 2.701l-.002.002zM85.465 76.212s4.804 20.09 4.039 27.658c0 0-1.767-8.087-6.017-14.712 0 0 1.551-1.363 1.467-1.864 0 0-1.151-.34-2.269-.112 0 0 .124-8.66.82-9.576.696-.915 1.959-1.396 1.959-1.396l.001.002zm7.539.682c-.064.03 4.761 19.632 5.167 25.906 0 0-.482-11.197-.435-14.423 0 0-1.996-1.054-1.996-1.425s2.128-1.371 2.128-1.371-1.348-6.895-2.084-7.655c-.735-.76-2.783-1.032-2.783-1.032h.003z" fill="#233862"/></g><defs><clipPath id="clip0_1013_6844"><path fill="#fff" transform="translate(20 31)" d="M0 0h269v145H0z"/></clipPath></defs></svg>