<svg width="58" height="58" fill="none" xmlns="http://www.w3.org/2000/svg"><path fill-rule="evenodd" clip-rule="evenodd" d="M47.776 53.295a.786.786 0 01-.125.462.782.782 0 01-1.08.223l-3.979-2.543-3.979 2.543a.782.782 0 01-.845 0l-3.975-2.543-3.978 2.543a.782.782 0 01-.845 0l-3.98-2.547-3.978 2.547a.782.782 0 01-.845 0l-3.979-2.547-3.983 2.547a.783.783 0 01-1.084-.235.824.824 0 01-.12-.45V5.565A1.565 1.565 0 0112.564 4h3.658c-.09.251-.136.516-.137.782v3.913a3.131 3.131 0 003.13 3.13H39.56a3.13 3.13 0 003.13-3.13V4.782c0-.266-.047-.53-.137-.782h3.658a1.565 1.565 0 011.565 1.565v47.73zm-5.477-39.123H21.955a.782.782 0 000 1.565h20.344a.782.782 0 000-1.565zm0 3.913H21.955a.782.782 0 000 1.565h20.344a.782.782 0 000-1.565zm0 3.912H21.955a.782.782 0 000 1.565h20.344a.782.782 0 000-1.565zm0 3.912H21.955a.782.782 0 000 1.565h20.344a.782.782 0 000-1.565zm0 3.913H21.955a.782.782 0 000 1.565h20.344a.782.782 0 000-1.565zm-23.474-15.65h-3.13a.782.782 0 000 1.565h3.13a.782.782 0 000-1.565zm0 3.913h-3.13a.782.782 0 000 1.565h3.13a.782.782 0 000-1.565zm0 3.912h-3.13a.782.782 0 000 1.565h3.13a.782.782 0 000-1.565zm0 3.912h-3.13a.782.782 0 000 1.565h3.13a.782.782 0 000-1.565zm-3.13 3.913a.782.782 0 000 1.565h3.13a.782.782 0 000-1.565h-3.13zm1.9 16.487a7.824 7.824 0 1011.066-11.064 7.824 7.824 0 00-11.065 11.064zm15.706-1.62h9.39a.783.783 0 000-1.566H33.3a.783.783 0 000 1.566zm0-6.26h9.39a.782.782 0 100-1.565H33.3a.783.783 0 000 1.565zM39.56 10.26a1.565 1.565 0 001.565-1.565V4.783A.783.783 0 0040.342 4H18.433a.783.783 0 00-.782.783v3.912a1.565 1.565 0 001.565 1.565H39.56zM19.216 5.565H39.56v2.348a.783.783 0 01-.783.782H19.998a.782.782 0 01-.782-.782V5.565zm2.637 33.255c0-.465.364-.923 1.334-.923a2.422 2.422 0 011.635.618c.13.146.31.238.505.259a.627.627 0 00.63-.619.678.678 0 00-.117-.39 2.998 2.998 0 00-2.105-1.053v-.658a.544.544 0 10-1.088 0v.666c-1.475.144-2.148 1.064-2.148 2.1 0 1.584 1.349 2.03 2.53 2.42.918.304 1.735.574 1.735 1.32 0 .724-.513 1.076-1.565 1.076a2.684 2.684 0 01-1.93-.903.684.684 0 00-.511-.258.629.629 0 00-.529.958 3.365 3.365 0 002.418 1.393v.653a.544.544 0 101.088 0v-.634c1.565-.152 2.386-.993 2.386-2.28 0-1.695-1.435-2.168-2.641-2.565-.874-.288-1.627-.535-1.627-1.18z" fill="#424244"/></svg>