<svg width="58" height="58" fill="none" xmlns="http://www.w3.org/2000/svg"><path d="M56.13 26.687l-6.88-12.494h5.404v-2.151H34.54C34.043 9.737 31.962 8 29.492 8s-4.55 1.736-5.048 4.042H4.33v2.151h5.405l-6.88 12.494A1.06 1.06 0 002 27.732c0 5.225 4.287 9.466 9.568 9.466 5.28 0 9.568-4.256 9.568-9.466 0-.523-.373-.922-.854-1.03L13.4 14.193h11.043c.42 1.844 1.988 3.443 3.961 3.873v22.698c-4.054.523-7.176 3.996-7.176 8.13 0 .599.482 1.106 1.087 1.106h14.368c.605 0 1.087-.507 1.087-1.106 0-4.15-3.138-7.608-7.176-8.13V18.081c1.973-.415 3.541-2.028 3.96-3.872H45.6l-6.88 12.494a1.06 1.06 0 00-.855 1.044c0 5.226 4.287 9.467 9.568 9.467S57 32.972 57 27.763a1.11 1.11 0 00-.87-1.076zm-44.547 8.36c-3.712 0-6.788-2.705-7.316-6.24h14.631c-.543 3.52-3.618 6.24-7.315 6.24zm6.213-8.406H5.355l6.213-11.326 6.228 11.326zm17.707 21.208h-11.99c.512-2.92 3.012-4.949 5.995-4.949 2.982 0 5.467 2.029 5.995 4.949zm-6.01-31.812c-1.647 0-2.998-1.321-2.998-2.966 0-1.629 1.335-2.966 2.997-2.966s2.998 1.322 2.998 2.966c0 1.63-1.336 2.966-2.998 2.966zm17.94-.722l6.212 11.326H41.204l6.228-11.326zm0 19.732c-3.713 0-6.788-2.704-7.316-6.239h14.63c-.527 3.52-3.618 6.24-7.315 6.24z" fill="#000"/></svg>