<svg width="175" height="61" fill="none" xmlns="http://www.w3.org/2000/svg"><path d="M33.328 8.96c0 5.279-3.95 8.753-8.935 8.753-4.986 0-8.911-3.474-8.911-8.752 0-5.279 3.974-8.753 8.935-8.753 4.962 0 8.911 3.474 8.911 8.753zm-13.08 0a3.954 3.954 0 003.694 4.194h.45a4.193 4.193 0 100-8.387 3.942 3.942 0 00-4.12 3.767v.427h-.024zm13.117 21.358c0 5.278-3.95 8.753-8.948 8.753s-8.935-3.462-8.935-8.753c0-5.29 3.962-8.753 8.935-8.753 4.974 0 8.948 3.475 8.948 8.753zm-13.092 0a3.954 3.954 0 003.693 4.193h.451a4.193 4.193 0 100-8.386 3.944 3.944 0 00-4.144 3.742v.451z" fill="#C4D017"/><path d="M48.676 6.498c0 3.377-2.012 5.913-6.803 5.913h-1.986v4.937h-4.56V.574h6.547c4.79 0 6.802 2.548 6.802 5.924zm-4.694 0c0-1.255-.914-1.89-2.23-1.89h-1.89v3.78h1.89c1.316 0 2.23-.622 2.23-1.89zm17.469 6.692v4.17H50.395V.586h10.727v4.17h-6.168v1.998h5.388v3.95h-5.388v2.523l6.497-.036zm18.383 4.17h-3.547l-7.912-9.01h-.049v9.009H63.78V.586h3.548l7.911 9.009h.049V.586h4.56V17.36h-.013zM0 30.318c0-5.559 4.035-8.753 9.228-8.753 2.206-.036 4.376.61 6.205 1.853L13.03 27.32a6.043 6.043 0 00-3.669-1.255c-2.462 0-4.583 1.487-4.583 4.266 0 2.78 2.108 4.267 4.583 4.267a6.07 6.07 0 003.67-1.256l2.4 3.901a10.723 10.723 0 01-6.204 1.853C4.035 39.083 0 35.889 0 30.33v-.012zm51.394 8.399h-3.547l-7.9-9.008H39.9v9.008h-4.56V21.944h3.548l7.912 9.008h.048v-9.009h4.56v16.774h-.013zM66.06 26.1h-4.194v12.617h-4.572V26.1h-4.18v-4.169h12.945v4.17zm10.592 12.617l-4.303-6.254v6.23h-4.56V21.919h7.168c4.413 0 6.303 2.609 6.303 5.51a5.052 5.052 0 01-3.596 5.047l4.644 6.229H76.64l.012.012zm-4.303-12.739v3.596h1.987c1.39 0 2.23-.573 2.23-1.816s-.84-1.78-2.23-1.78h-1.987zm22.796 9.594h-5.68L88.44 38.73h-5.046l6.485-16.773h4.864l6.485 16.773h-5.047l-1.048-3.157h.012zM94 31.976l-1.706-5.254-1.732 5.254H94zm6.911-1.658c0-5.559 4.035-8.753 9.228-8.753 2.206-.036 4.376.61 6.205 1.853l-2.402 3.901a6.042 6.042 0 00-3.669-1.255c-2.463 0-4.584 1.487-4.584 4.266 0 2.78 2.109 4.267 4.584 4.267a6.068 6.068 0 003.669-1.256l2.402 3.901a10.726 10.726 0 01-6.205 1.853c-5.193-.012-9.228-3.206-9.228-8.765v-.012zm29.561-4.218h-4.194v12.617h-4.559V26.1h-4.193v-4.169h12.946v4.17zm6.266 12.617h-4.559V21.944h4.559v16.773zm18.955 0h-3.535l-7.899-9.008h-.049v9.008h-4.559V21.944h3.547l7.912 9.008h.048v-9.009h4.535v16.774zm19.273-8.155c0 4.912-2.828 8.484-8.204 8.484-5.376 0-9.106-3.572-9.106-8.777 0-5.205 3.352-8.728 9.338-8.728a10.844 10.844 0 016.717 2.158l-2.78 3.742a6.254 6.254 0 00-4.071-1.536c-2.755 0-4.413 1.792-4.413 4.413 0 2.438 1.487 4.388 4.535 4.388 2.157 0 3.181-.963 3.376-2.109h-4.144v-3.84h8.655c.085.647.109 1.341.109 1.792l-.012.013zM16.201 49.176c0 3.377-2.011 5.913-6.802 5.913h-2v4.937H2.854V43.252H9.4c4.79 0 6.802 2.548 6.802 5.924zm-4.693 0c0-1.255-.914-1.89-2.231-1.89h-1.89v3.78h1.89c1.34 0 2.23-.622 2.23-1.89zm12.848-1.133l-3.9 11.983h-5.048l6.486-16.774h4.863l6.486 16.774h-5.047l-3.852-11.983h.012zm18.907 11.995l-4.315-6.23v6.23h-4.56V43.264h7.168c4.413 0 6.303 2.609 6.303 5.51a5.052 5.052 0 01-3.596 5.047l4.656 6.229h-5.668l.012-.012zm-4.315-12.763v3.584h1.999c1.39 0 2.23-.573 2.23-1.817 0-1.243-.84-1.767-2.23-1.767h-2zm22.772.146h-4.218v12.617h-4.56V47.42H48.75v-4.169h12.958v4.169h.012zm17.76 12.617h-3.547l-7.912-9.009h-.048v9.009h-4.56V43.264h3.548l7.911 9.009h.086v-9.009h4.559l-.037 16.774zm13.97-4.169v4.169H82.407V43.264h10.691v4.17h-6.144v1.998h5.388v3.95h-5.388v2.523l6.51-.036h-.012zm11.203 4.169l-4.315-6.23v6.23h-4.56V43.264h7.168c4.413 0 6.303 2.609 6.303 5.51a5.053 5.053 0 01-3.596 5.047l4.644 6.229h-5.656l.012-.012zm-4.315-12.763v3.584h1.987c1.389 0 2.231-.573 2.231-1.817 0-1.243-.842-1.767-2.231-1.767h-1.987zm23.612-2.962l-1.963 4.059a7.944 7.944 0 00-4.096-1.341c-.719 0-1.023.195-1.023.634 0 .305.195.548.889.914l3.45 1.768c1.768.914 3.121 2.109 3.121 4.742 0 3.45-2.304 5.327-6.595 5.327-2.487 0-4.937-.658-7.095-1.89l2.085-4.364c1.987 1.414 3.608 2.06 5.254 2.06.878 0 1.414-.195 1.414-.743 0-.402-.293-.634-.817-.878l-3.669-1.853a5.074 5.074 0 01-2.975-4.742c0-2.999 2.085-5.083 6.303-5.083 1.999 0 3.962.487 5.729 1.402l-.012-.013zm17.274-1.061v16.774h-4.547v-6.522h-5.729v6.522h-4.547V43.252h4.547v6.083h5.729v-6.083h4.547zm7.472 16.786h-4.559V43.264h4.559v16.774zm16.274-10.862c0 3.377-2.011 5.913-6.802 5.913h-1.987v4.937h-4.559V43.252h6.546c4.791 0 6.802 2.548 6.802 5.924zm-4.693 0c0-1.255-.914-1.89-2.231-1.89h-1.889v3.78h1.889c1.317 0 2.231-.622 2.231-1.89z" fill="#fff"/></svg>