<svg width="121" height="42" fill="none" xmlns="http://www.w3.org/2000/svg"><path d="M22.908 6.037c0 3.628-2.715 6.016-6.142 6.016-3.427 0-6.125-2.388-6.125-6.016S13.373.021 16.783.021s6.125 2.388 6.125 6.016zm-8.99 0a2.718 2.718 0 002.538 2.883h.31a2.882 2.882 0 100-5.765 2.71 2.71 0 00-2.832 2.589v.293h-.016zm9.015 14.68c0 3.628-2.715 6.016-6.15 6.016-3.435 0-6.142-2.38-6.142-6.016s2.723-6.016 6.142-6.016c3.419 0 6.15 2.388 6.15 6.016zm-8.999 0a2.718 2.718 0 002.54 2.883h.31a2.882 2.882 0 100-5.765 2.71 2.71 0 00-2.85 2.572v.31z" fill="#C4D017"/><path d="M33.457 4.345c0 2.32-1.382 4.064-4.675 4.064h-1.366v3.393h-3.134V.272h4.5c3.293 0 4.675 1.752 4.675 4.073zm-3.226 0c0-.863-.628-1.299-1.533-1.299h-1.299v2.598h1.299c.905 0 1.533-.428 1.533-1.3zm12.008 4.6v2.866h-7.6V.28h7.373v2.866h-4.24V4.52h3.704v2.715h-3.703V8.97l4.466-.025zm12.635 2.865h-2.438l-5.438-6.19h-.034v6.192H43.84V.28h2.438l5.438 6.192h.034V.281h3.133v11.53h-.008zM0 20.717c0-3.82 2.773-6.016 6.343-6.016a7.371 7.371 0 014.265 1.274l-1.65 2.681a4.154 4.154 0 00-2.523-.863c-1.693 0-3.15 1.022-3.15 2.933 0 1.91 1.45 2.932 3.15 2.932.913 0 1.793-.31 2.522-.863l1.65 2.682a7.37 7.37 0 01-4.264 1.273C2.773 26.742 0 24.547 0 20.726v-.009zm35.326 5.773h-2.438l-5.43-6.191h-.034v6.192h-3.133V14.96h2.438l5.438 6.192h.033V14.96h3.134v11.53h-.008zm10.08-8.672h-2.883v8.672h-3.142v-8.672h-2.874v-2.866h8.899v2.866zm7.281 8.672l-2.958-4.298v4.282h-3.134v-11.53h4.927c3.033 0 4.332 1.793 4.332 3.787a3.472 3.472 0 01-2.472 3.47l3.193 4.281h-3.897l.009.008zm-2.958-8.756v2.472h1.366c.955 0 1.533-.394 1.533-1.248 0-.855-.578-1.224-1.533-1.224h-1.366zm15.669 6.595h-3.904l-.704 2.17h-3.47l4.458-11.53h3.344l4.457 11.53H66.11l-.72-2.17h.008zm-.787-2.472l-1.174-3.611-1.19 3.611h2.363zm4.75-1.14c0-3.82 2.773-6.016 6.343-6.016a7.37 7.37 0 014.265 1.274l-1.65 2.681a4.154 4.154 0 00-2.523-.863c-1.692 0-3.15 1.022-3.15 2.933 0 1.91 1.45 2.932 3.15 2.932.913 0 1.793-.31 2.522-.863l1.65 2.682a7.37 7.37 0 01-4.264 1.273c-3.57-.008-6.343-2.203-6.343-6.024v-.009zm20.319-2.899h-2.882v8.672h-3.134v-8.672H80.78v-2.866h8.899v2.866zm4.307 8.672h-3.134V14.962h3.134v11.53zm13.029 0h-2.43l-5.43-6.191h-.033v6.192h-3.134V14.96h2.438l5.438 6.192h.034V14.96h3.117v11.53zm13.247-5.605c0 3.377-1.944 5.832-5.639 5.832-3.695 0-6.259-2.455-6.259-6.033 0-3.578 2.304-6 6.418-6a7.453 7.453 0 014.617 1.484l-1.91 2.572a4.301 4.301 0 00-2.799-1.056c-1.894 0-3.033 1.232-3.033 3.033 0 1.676 1.022 3.017 3.117 3.017 1.483 0 2.187-.662 2.321-1.45h-2.849v-2.64h5.949c.059.445.075.922.075 1.232l-.008.009zM11.136 33.68c0 2.32-1.383 4.063-4.676 4.063H5.086v3.394H1.961v-11.53h4.5c3.292 0 4.675 1.752 4.675 4.073zm-3.226 0c0-.863-.629-1.3-1.534-1.3H5.078v2.598h1.298c.922 0 1.534-.427 1.534-1.298zm8.831-.78l-2.681 8.237h-3.469l4.458-11.53h3.343l4.457 11.53h-3.468L16.733 32.9h.008zm12.996 8.245l-2.966-4.281v4.281h-3.134v-11.53h4.927c3.033 0 4.332 1.794 4.332 3.788a3.473 3.473 0 01-2.472 3.469l3.2 4.282h-3.896l.009-.009zm-2.966-8.773v2.464h1.374c.955 0 1.533-.394 1.533-1.248 0-.855-.578-1.215-1.533-1.215H26.77zm15.652.101h-2.9v8.672H36.39v-8.672h-2.882v-2.865h8.906v2.865h.009zm12.207 8.672h-2.437l-5.438-6.192h-.034v6.192h-3.134v-11.53h2.439l5.438 6.193h.058v-6.192h3.134l-.025 11.53zm9.603-2.865v2.865h-7.59v-11.53h7.347v2.866h-4.223v1.375h3.704v2.714h-3.704v1.735l4.475-.025h-.009zm7.7 2.865l-2.966-4.281v4.281h-3.133v-11.53h4.926c3.033 0 4.332 1.794 4.332 3.788a3.472 3.472 0 01-2.471 3.469l3.192 4.282h-3.888l.008-.009zm-2.966-8.773v2.464h1.366c.955 0 1.533-.394 1.533-1.248 0-.855-.578-1.215-1.533-1.215h-1.366zm16.23-2.035l-1.349 2.79a5.461 5.461 0 00-2.815-.922c-.495 0-.704.134-.704.436 0 .21.134.377.612.628l2.37 1.215c1.216.628 2.146 1.45 2.146 3.26 0 2.37-1.584 3.661-4.533 3.661a9.855 9.855 0 01-4.877-1.299l1.433-3c1.366.973 2.48 1.417 3.611 1.417.604 0 .973-.134.973-.511 0-.277-.202-.436-.562-.604l-2.522-1.273a3.486 3.486 0 01-2.044-3.26c0-2.06 1.432-3.494 4.331-3.494 1.375 0 2.724.335 3.939.964l-.009-.008zm11.873-.729v11.529h-3.125v-4.483h-3.938v4.483h-3.125v-11.53h3.125v4.182h3.938v-4.181h3.125zm5.137 11.537h-3.134v-11.53h3.134v11.53zm11.185-7.465c0 2.32-1.382 4.063-4.675 4.063h-1.366v3.394h-3.133v-11.53h4.499c3.293 0 4.675 1.752 4.675 4.073zm-3.225 0c0-.863-.629-1.3-1.534-1.3h-1.298v2.598h1.298c.905 0 1.534-.427 1.534-1.298z" fill="#424244"/></svg>