<svg width="308" height="206" viewBox="0 0 308 206" fill="none" xmlns="http://www.w3.org/2000/svg">
<g clip-path="url(#clip0_1013_6844)">
<path d="M36.4884 175.24C36.4884 175.24 3.45406 136.626 30.9021 94.8224C55.256 57.7303 83.6512 60.2658 104.484 75.3188C113.356 81.7301 147.172 80.2299 176.158 48.7543C207.015 15.2447 288.884 27.9514 274.563 97.3007C266.59 135.914 302.202 137.015 283.491 175.321L36.4898 175.24H36.4884Z" fill="#9AEFE1"/>
<path d="M42.7262 77.6782C42.7262 77.6782 34.8506 86.5047 34.4717 89.8805C34.0928 93.2562 38.2208 98.5383 38.2208 98.5383L42.7248 77.6768L42.7262 77.6782Z" fill="#AA413E"/>
<path d="M46.0479 170.727C46.0479 170.727 46.2681 174.041 46.7527 175.321H56.6006C56.4347 174.896 56.047 174.349 55.1497 174.176C53.6063 173.88 51.0261 172.688 50.0921 170.444C49.1097 168.084 46.0479 170.727 46.0479 170.727Z" fill="#163560"/>
<path d="M34.3087 170.682C34.3087 170.682 34.5349 174.041 35.0195 175.321H44.8674C44.7014 174.896 44.3152 174.349 43.4165 174.176C41.8745 173.88 39.2929 172.688 38.3589 170.444C37.3764 168.085 34.3087 170.682 34.3087 170.682Z" fill="#163560"/>
<path d="M51.9441 119.393C51.9441 119.393 50.5637 129.105 45.4166 146.346C40.2694 163.587 39.5675 171.052 39.5675 171.052L34.0444 170.882C34.0444 170.882 33.9974 152.04 36.369 143.37C38.7407 134.701 36.8816 112.116 36.8816 112.116L51.9441 119.394V119.393Z" fill="#163560"/>
<path d="M54.6313 112.647C54.6313 112.647 54.8266 127.283 52.5255 145.252C50.2243 163.222 51.0041 170.85 51.0041 170.85L45.4927 171.053C45.4927 171.053 42.1989 153.076 43.1431 144.082C44.0874 135.088 38.6333 113.218 38.6333 113.218L54.6313 112.647Z" fill="#1C468A"/>
<path d="M43.9625 78.397L46.8996 80.516L51.1436 79.6464C51.0848 79.2696 50.8043 77.7063 50.5503 76.2912C50.5356 76.2076 50.5195 76.124 50.5048 76.0434C50.286 74.8394 50.098 73.8041 50.098 73.8041L46.1345 71.8802L44.6571 71.1631C44.6615 71.188 44.7717 72.499 44.7864 72.6911C45.0639 76.0903 43.964 78.3985 43.964 78.3985L43.9625 78.397Z" fill="#FFB27D"/>
<path d="M36.5159 114.454C37.3676 118.733 51.552 119.239 55.2086 115.356C55.6242 114.913 55.6448 112.854 55.4876 110.076C55.1807 104.651 54.1953 96.4899 54.1572 92.3193C54.1381 90.3059 53.887 88.2456 53.5521 86.3759C52.8399 82.3901 51.7532 79.2622 51.7532 79.2622C51.7532 79.2622 44.8247 76.7971 43.5295 77.2165C37.2839 79.2358 35.6641 110.173 36.5159 114.452V114.454Z" fill="#C65447"/>
<path d="M55.4893 110.076C55.1824 104.651 54.197 96.4899 54.1588 92.3194C54.1397 90.3059 53.8886 88.2456 53.5538 86.3759L49.3861 85.5664C49.3861 85.5664 45.311 103.881 55.4893 110.075V110.076Z" fill="#AA413E"/>
<path d="M53.232 102.514C53.232 102.514 52.9486 103.262 53.5448 103.763C54.141 104.265 54.5287 105.077 54.3921 105.671C54.2556 106.265 52.9471 107.234 52.4933 107.078C52.0396 106.921 51.1159 106.139 51.2157 105.825C51.3156 105.511 50.5946 103.076 51.7003 102.137C52.8061 101.2 53.232 102.513 53.232 102.513V102.514Z" fill="#FFB27D"/>
<path d="M48.5725 78.1655C48.5725 78.1655 52.6374 79.0029 55.8754 84.2542C59.1135 89.5055 61.2443 93.4106 60.6481 95.3038C60.0519 97.197 54.614 103.762 53.6756 103.762C52.7372 103.762 51.2247 103.011 51.1395 101.324C51.1395 101.324 54.9679 95.009 54.2146 94.0632C53.8929 93.6585 49.2436 89.507 48.5799 91.3825C47.4814 94.4855 48.571 78.1655 48.571 78.1655H48.5725Z" fill="#C65447"/>
<path d="M45.0818 72.7496C45.9527 74.3714 49.1952 75.7748 50.5477 76.291C50.533 76.2074 50.5168 76.1238 50.5021 76.0432C50.2833 74.8392 50.0954 73.8039 50.0954 73.8039L46.1318 71.88C45.2551 71.8668 44.7221 72.0823 45.0818 72.751V72.7496Z" fill="#FCA56B"/>
<path d="M51.5902 73.5388C51.5902 73.5388 45.2051 75.7311 44.0259 71.3347C42.8467 66.9383 41.2283 64.2606 45.255 62.6754C49.2817 61.0902 50.527 62.5097 51.2451 63.872C51.9632 65.2343 53.2203 72.8569 51.5902 73.5402V73.5388Z" fill="#FFB27D"/>
<path d="M50.9955 63.4467C50.9955 63.4467 50.5888 68.5631 49.6269 68.3402C48.665 68.1188 47.7942 67.9531 47.9337 69.4958C48.0747 71.0384 49.4081 72.8187 46.4446 73.0915C43.4811 73.3642 39.2224 64.9557 40.036 63.3631C42.3842 58.7688 54.3893 57.842 50.9941 63.4467H50.9955Z" fill="#163560"/>
<path d="M50.0558 77.3278C49.9735 77.2897 44.9453 75.6575 44.399 75.8555C43.8527 76.0535 43.5297 77.2164 43.5297 77.2164L51.7534 79.2621C51.7534 79.2621 51.1057 77.8132 50.0558 77.3264V77.3278Z" fill="#AA413E"/>
<path d="M231.974 36.5649H138.57V102.345H231.974V36.5649Z" fill="#54B0A5"/>
<path d="M228.74 39.9834H141.803V98.9254H228.74V39.9834Z" fill="white"/>
<path d="M210.675 172.926H208.625L195.812 168.503C190.358 166.621 186.699 161.492 186.699 155.729V101.332C186.699 100.565 186.108 99.905 185.34 99.8683C184.521 99.8302 183.844 100.481 183.844 101.291V155.728C183.844 161.491 180.184 166.621 174.73 168.502L161.916 172.925H159.583C158.815 172.925 158.154 173.514 158.117 174.281C158.079 175.1 158.731 175.776 159.542 175.776H162.145C162.145 175.776 162.151 175.776 162.154 175.776C162.157 175.776 162.16 175.776 162.163 175.776H167.875C168.63 175.776 169.281 175.205 169.334 174.454C169.36 174.088 169.245 173.747 169.04 173.482L178.455 170.232C182.869 168.709 187.668 168.709 192.082 170.232L201.278 173.406C201.043 173.67 200.904 174.019 200.918 174.403C200.946 175.176 201.61 175.777 202.384 175.777H208.374C208.374 175.777 208.38 175.777 208.383 175.777C208.386 175.777 208.389 175.777 208.392 175.777H210.712C211.523 175.777 212.176 175.101 212.136 174.283C212.1 173.516 211.439 172.926 210.671 172.926H210.675Z" fill="#54B0A5"/>
<path d="M233.211 36.5649H231.975V102.345H233.211V36.5649Z" fill="#35488B"/>
<path d="M186.699 102.345H183.846V104.989H186.699V102.345Z" fill="#35488B"/>
<path d="M161.625 55.6992C161.11 56.1348 160.069 56.953 159.652 57.3006L160.706 70.4692L149.854 65.6241L147.88 67.2254C147.617 68.2637 147.478 69.3503 147.478 70.4692C147.478 77.7647 153.4 83.6789 160.706 83.6789C168.012 83.6789 173.934 77.7647 173.934 70.4692C173.934 63.1737 168.931 55.7007 161.625 55.7007V55.6992Z" fill="#82B378"/>
<path d="M157.384 54.5923C151.67 55.0425 146.977 59.1177 145.613 64.5171L158.439 67.7609L160.412 66.1596L157.384 54.5923Z" fill="#AA413E"/>
<path d="M162.68 55.6582C162.324 55.6582 161.973 55.6729 161.625 55.7007L162.68 68.8693L149.854 65.6256C149.591 66.6638 149.451 67.7505 149.451 68.8693C149.451 76.1649 155.374 82.079 162.68 82.079C169.985 82.079 175.908 76.1649 175.908 68.8693C175.908 61.5738 169.985 55.6597 162.68 55.6597V55.6582Z" fill="#A8D29F"/>
<path d="M159.358 52.9907C153.644 53.4409 148.95 57.5162 147.586 62.9156L160.412 66.1593L159.358 52.9907Z" fill="#C65447"/>
<path d="M157.781 58.0338C157.735 58.0338 157.691 58.0162 157.657 57.9825C157.588 57.9136 157.588 57.8036 157.657 57.7347L165.555 49.8481H216.353C216.45 49.8481 216.527 49.9259 216.527 50.0227C216.527 50.1194 216.45 50.1972 216.353 50.1972H165.701L157.904 57.9825C157.87 58.0162 157.825 58.0338 157.781 58.0338Z" fill="#F1A34F"/>
<path d="M173.196 72.7273C173.15 72.7273 173.106 72.7097 173.072 72.676C173.003 72.6071 173.003 72.4971 173.072 72.4282L181.575 63.9375H219.016C219.113 63.9375 219.191 64.0152 219.191 64.112C219.191 64.2088 219.113 64.2865 219.016 64.2865H181.72L173.32 72.6745C173.287 72.7083 173.241 72.7259 173.197 72.7259L173.196 72.7273Z" fill="#F1A34F"/>
<path d="M215.916 48.553H165.994C165.722 48.553 165.468 48.4152 165.318 48.1879C164.969 47.6526 165.354 46.9443 165.994 46.9443H215.916C216.188 46.9443 216.442 47.0822 216.592 47.3095C216.941 47.8447 216.556 48.553 215.916 48.553Z" fill="#AFCDFB"/>
<path d="M217.529 62.8611H181.97C181.698 62.8611 181.444 62.7233 181.294 62.496C180.945 61.9607 181.33 61.2524 181.97 61.2524H217.529C217.8 61.2524 218.054 61.3903 218.204 61.6176C218.554 62.1528 218.169 62.8611 217.529 62.8611Z" fill="#AFCDFB"/>
<path d="M188.148 68.334H199.938C200.496 68.334 200.949 68.7871 200.949 69.3444V90.2631C200.949 90.8204 200.496 91.2735 199.938 91.2735H188.148C187.59 91.2735 187.136 90.8204 187.136 90.2631V69.3444C187.136 68.7871 187.59 68.334 188.148 68.334Z" fill="#AFCDFB"/>
<path d="M217.322 91.2735H205.478C204.92 91.2735 204.466 90.8218 204.466 90.2631V69.3444C204.466 68.7871 204.919 68.334 205.478 68.334H217.269C217.827 68.334 218.279 68.7842 218.281 69.3414L218.334 90.2602C218.334 90.8189 217.881 91.272 217.322 91.272V91.2735Z" fill="#AFCDFB"/>
<path d="M254.914 162.264L253.161 169.639L250.535 169.624L250.438 162.264H254.914Z" fill="#E49963"/>
<path d="M232.822 162.579L227.832 169.639L225.887 167.146L228.89 161.608L232.822 162.579Z" fill="#E49963"/>
<path d="M245.793 65.353C246.699 64.8382 247.786 64.7825 248.546 64.8265C248.351 64.6241 247.966 64.5508 247.966 64.5508C248.438 64.4804 249.489 64.9482 249.489 64.9482C256.045 62.4259 257.076 72.0648 256.938 74.3041C256.801 76.5434 259.14 77.2751 262.552 79.0392C269.059 82.4062 269.631 86.914 269.631 86.914C269.582 86.9433 269.527 86.9785 269.471 87.0167C269.148 86.4697 268.485 85.4446 267.924 85.2892C267.944 85.3391 268.586 86.7014 268.825 87.483C266.906 88.9421 263.314 92.1727 260.81 94.4632C260.822 94.016 260.803 93.3795 260.64 93.0437L260.33 94.9032C258.991 96.1335 258.067 96.9972 258.067 96.9972C258.233 95.1877 249.871 85.6382 245.508 82.7772C244.446 81.2154 244.069 78.4585 244.041 78.2415C244.225 80.4279 244.599 81.6554 244.934 82.3461C241.239 78.9512 243.391 66.7153 245.794 65.3515L245.793 65.353Z" fill="#163560"/>
<path d="M245.765 82.9225C245.743 82.9328 247.871 84.0356 249.472 83.5986C250.977 83.188 251.961 81.2391 251.94 81.2347C251.303 81.1086 251.119 80.2331 251.133 76.4731L250.845 76.5303L245.997 77.4894C245.997 77.4894 246.107 79.013 246.11 80.4472C246.113 81.6526 246.04 82.795 245.764 82.924L245.765 82.9225Z" fill="#E49963"/>
<path d="M251.247 66.9309C251.247 66.9309 248.856 64.3896 245.854 66.8004C245.854 66.8004 247.602 66.4983 251.247 66.9309Z" fill="#E37970"/>
<path d="M245.999 77.4879C245.999 77.4879 246.109 79.0115 246.112 80.4457C248.824 80.3694 250.257 77.8985 250.845 76.5288L245.997 77.4879H245.999Z" fill="#D68D5D"/>
<path d="M251.346 76.0021C251.346 76.0021 252.767 73.76 253.108 71.8419C253.352 70.4722 252.653 65.3983 247.547 66.1286C247.547 66.1286 246.063 66.2753 244.67 67.2152C243.561 67.9631 241.96 69.5777 243.75 74.0063L244.215 75.5021L251.347 76.0021H251.346Z" fill="#163560"/>
<path d="M226.679 165.21L229.249 165.289L232.03 165.375C232.03 165.375 238.453 158.233 242.057 146.783C242.141 146.518 242.23 146.248 242.323 145.975C244.295 140.232 248.383 133.025 250.538 126.502C250.88 125.462 251.188 124.484 251.464 123.559C251.552 123.263 251.639 122.971 251.721 122.685C253.309 117.176 253.768 113.559 254.193 109.695L238.635 109.82C238.635 109.82 236.124 136.207 226.679 165.212V165.21Z" fill="#2B478B"/>
<path d="M240.813 100.892C240.853 108.284 239.728 111.456 239.728 111.456C239.728 111.456 246.389 114.835 254.306 112.348C254.4 112.319 260.862 110.846 260.862 110.846C260.729 110.547 259.552 105.566 259.422 105.291C257.751 101.707 256.482 100.135 256.284 99.034C255.917 96.9766 255.908 94.8488 256.092 92.8413C256.575 87.5269 258.011 83.1144 258.011 83.1144C255.854 82.6246 253.835 81.7638 251.589 80.9221C251.072 81.5644 249.494 82.236 248.125 82.2052C246.548 82.17 246.037 81.4969 246.119 80.7607C244.439 81.6949 243.097 82.5762 243.097 82.5762C241.668 85.053 238.772 87.4594 238.562 91.259C238.511 92.1931 240.815 100.685 240.816 100.892H240.813Z" fill="#E7F1FD"/>
<path d="M231.782 89.9099C234.066 87.2453 239.982 81.469 246.088 80.7593L240.819 91.0097C240.819 91.0097 240.523 92.7665 238.963 93.7901C235.14 96.2977 230.283 97.4063 230.283 97.4063C230.283 97.4063 226.992 95.9721 222.494 92.6814C221.082 91.6476 218.601 87.7073 218.601 87.7073L219.27 85.4709C219.27 85.4709 223.483 87.8231 224.987 88.5006C225.845 88.8877 227.818 89.8101 229.211 90.4627C230.096 90.8777 231.148 90.6504 231.783 89.9084L231.782 89.9099Z" fill="#A8D29F"/>
<path d="M245.093 78.8457C245.093 78.8457 251.51 78.9513 251.514 74.9596C251.519 70.968 252.35 68.2932 248.253 68.0571C244.156 67.821 243.358 69.3432 243.032 70.6747C242.706 72.0062 243.424 78.7152 245.093 78.8457Z" fill="#E49963"/>
<path d="M245.33 67.9588C245.33 67.9588 247.088 72.6426 249.784 73.3347C252.481 74.0269 253.651 73.3054 253.651 73.3054C253.651 73.3054 251.583 71.6645 251.153 68.8005C251.153 68.8005 246.656 65.7298 245.33 67.9588Z" fill="#163560"/>
<path d="M245.765 68.3385C245.765 68.3385 244.452 69.3841 244.134 70.4004C243.813 71.4166 243.669 73.5092 243.059 73.4388C243.059 73.4388 241.735 70.2552 243.223 68.4544C244.8 66.5451 245.766 68.3385 245.766 68.3385H245.765Z" fill="#163560"/>
<path d="M219.269 85.4712C219.269 85.4712 218.364 82.2157 214.779 82.6747C214.368 82.8038 213.165 83.2818 213.935 84.5664C214.502 85.5137 214.747 85.0254 215.637 86.2983C216.528 87.5712 217.495 87.8586 218.599 87.7061L219.269 85.4697V85.4712Z" fill="#E49963"/>
<path d="M253.249 169.227C253.249 169.227 253.037 170.687 253.584 172.25C253.584 172.25 254.014 174.207 252.084 174.242C250.155 174.278 249.682 174.097 249.901 172.897C250.119 171.698 250.535 169.624 250.535 169.624L253.25 169.227H253.249Z" fill="#E49963"/>
<path d="M249.718 175.078C249.718 175.078 249.76 175.103 249.84 175.142H253.616C253.689 175.104 253.723 175.078 253.723 175.078C253.942 174.097 253.585 172.249 253.585 172.249C251.4 174.248 250.033 172.199 250.033 172.199C249.677 173.054 249.718 175.076 249.718 175.076V175.078Z" fill="#82B378"/>
<path d="M221.239 173.094C221.239 173.094 224.796 169.152 225.887 167.146L228.532 168.5L222.62 174.044L221.236 173.862V173.095L221.239 173.094Z" fill="#E49963"/>
<path d="M219.032 175.142H223.899C224.367 174.792 224.805 173.983 225.35 172.896C225.639 172.317 226.291 171.997 226.961 171.821V175.104H227.97L228.926 171.614C229.554 170.459 228.976 169.41 228.532 168.498C228.017 168.498 226.63 168.849 224.003 171.805C223.14 172.776 222.185 173.123 221.239 173.092C221.226 173.101 221.213 173.109 221.201 173.113C219.617 173.824 219.163 174.708 219.034 175.141L219.032 175.142Z" fill="#82B378"/>
<path d="M246.116 80.7593C246.116 80.7593 242.404 89.9187 242.294 91.7722C242.185 93.6258 241.857 122.085 241.857 122.085C241.857 122.085 242.076 123.393 239.564 122.849C237.052 122.303 236.397 121.758 236.397 121.758C236.397 121.758 238.8 104.203 238.145 98.097C237.49 91.9907 243.167 82.0321 243.167 82.0321L246.116 80.7593Z" fill="#A8D29F"/>
<path d="M229.249 165.289L232.03 165.374C232.03 165.374 238.453 158.232 242.057 146.782C242.141 146.517 242.23 146.247 242.323 145.974C244.295 140.232 248.384 133.024 250.538 126.502C250.88 125.462 251.188 124.484 251.465 123.559C251.553 123.262 251.639 122.97 251.722 122.685L249.431 120.948C249.431 120.948 242.552 132.07 240.423 142.537C238.572 151.629 231.165 162.569 229.247 165.289H229.249Z" fill="#233862"/>
<path d="M236.552 96.3976L236.687 96.8126L243.887 94.4751C243.887 94.4751 243.982 94.3636 243.932 94.2184C243.878 94.0586 243.752 94.0601 243.752 94.0601L236.552 96.3976Z" fill="#163560"/>
<path d="M249.191 143.511C249.151 148.601 249.41 160.303 250.074 165.148H252.538C253.899 165.148 254.579 165.129 254.579 165.129C256.244 156.706 257.429 149.736 258.291 143.73C258.999 138.801 259.628 134.576 260.112 130.938C260.6 127.278 260.938 124.213 261.06 121.623C261.079 121.215 261.092 120.818 261.099 120.434C261.107 120.047 261.11 119.67 261.105 119.305L247.664 117.997C247.833 126.915 249.215 140.553 249.193 143.513L249.191 143.511Z" fill="#2B478B"/>
<path d="M252.538 165.148C253.899 165.148 254.579 165.129 254.579 165.129C256.245 156.706 257.43 149.736 258.292 143.73C259 138.801 259.628 134.576 260.113 130.938C260.6 127.278 260.938 124.213 261.06 121.623L256.127 124.521C256.127 124.521 259.276 125.629 258.074 134.026C256.873 142.422 254.211 163.961 252.54 165.15L252.538 165.148Z" fill="#233862"/>
<path d="M251.902 121.541C251.902 121.541 252.849 124.958 256.124 124.521C259.401 124.086 264.059 122.122 264.059 122.122C264.059 122.122 262.659 117.705 260.919 111.901C258.812 104.875 256.202 95.8184 254.973 90.1066C254.628 88.5053 254.391 87.1694 254.305 86.2118L251.587 80.9458C251.587 80.9458 247.535 90.0275 247.316 92.318C247.097 94.6086 251.902 121.541 251.902 121.541Z" fill="#A8D29F"/>
<path d="M255.174 91.9764L251.586 80.9458C251.597 80.9502 256.117 82.2891 258.39 83.4358C258.39 83.4358 259.812 85.2659 260.691 89.4878C260.691 89.4878 261.621 99.6238 259.546 103.331C259.546 103.331 252.995 104.639 242.511 101.04V98.6413C242.511 98.6413 253.976 99.2411 256.324 99.5138L255.173 91.9764H255.174Z" fill="#E49963"/>
<path d="M252.047 97.116C252.194 100.823 253.068 108.02 260.855 111.873C260.876 111.883 260.897 111.893 260.917 111.902C258.81 104.876 256.2 95.8197 254.971 90.1079C253.541 92.243 251.967 95.0762 252.046 97.1175L252.047 97.116Z" fill="#82B378"/>
<path d="M251.586 80.9458C251.586 80.9458 258.236 81.4136 259.836 84.9756C261.439 88.5376 261.948 100.386 259.91 103.877C259.91 103.877 257.104 104.674 252.14 103.747C252.078 103.736 252.018 103.724 251.956 103.712C251.956 103.712 250.373 99.8409 251.792 99.0783C251.792 99.0783 255.977 99.2968 255.541 97.9154C255.105 96.534 251.585 80.9458 251.585 80.9458H251.586Z" fill="#A8D29F"/>
<path d="M243.687 99.2806C243.687 99.2806 242.774 98.1749 242.579 97.0472C242.383 95.918 241.78 95.0822 240.203 94.8754C238.625 94.6686 237.948 94.6466 237.953 95.0895C237.957 95.5338 239.241 98.631 241.504 100.482C243.767 102.332 243.687 99.2806 243.687 99.2806Z" fill="#E49963"/>
<path d="M236.033 96.7978L236.551 96.3975L236.685 96.811L236.033 96.7978Z" fill="#163560"/>
<path d="M217.04 86.0062C216.986 86.0062 216.931 85.9915 216.883 85.9622L174.832 60.4286C174.689 60.342 174.644 60.1558 174.73 60.0136C174.817 59.8698 175.004 59.8259 175.148 59.9124L217.198 85.446C217.341 85.5325 217.386 85.7188 217.3 85.861C217.243 85.9549 217.143 86.0062 217.041 86.0062H217.04Z" fill="#163560"/>
<path d="M93.0087 76.1414L93.0043 76.8937C93.0043 76.8937 93.2099 79.2459 90.3095 79.589C87.4092 79.9336 85.0317 79.8882 85.1095 78.0727C85.3709 76.6679 85.8394 74.4858 85.8585 73.3229C85.8658 72.8903 85.8364 72.4328 85.7557 71.9152L91.3757 71.8037L93.0307 72.0735L93.0087 76.1414Z" fill="#FFB27D"/>
<path d="M93.0292 72.0735L93.0072 76.1414C92.4095 76.4186 91.7369 76.5872 90.9821 76.5872C88.3989 76.5872 86.7307 74.6955 85.8569 73.3229C85.8643 72.8903 85.8349 72.4328 85.7542 71.9152L91.3742 71.8037L93.0292 72.0735Z" fill="#E2915A"/>
<path d="M85.3241 71.0135C85.9762 74.5183 90.5036 74.4024 92.4611 74.1825C93.0118 74.1209 93.3584 74.0505 93.3584 74.0505C93.9796 73.8848 94.3261 72.9081 94.4862 71.6294C94.8049 69.0983 94.4025 65.3824 93.9737 64.4307C93.329 63.0009 92.1146 61.4538 87.5548 62.5697C82.9936 63.6872 84.4871 66.5233 85.3241 71.0135Z" fill="#FFB27D"/>
<path d="M81.6189 175.321H88.0348C87.9864 174.985 87.8234 173.963 87.5238 173.022C87.4195 172.693 87.2976 172.375 87.1611 172.099C86.537 170.856 82.5734 171.646 82.5734 171.646C82.5734 171.646 82.2048 171.961 81.9185 173.164C81.7907 173.693 81.6791 174.397 81.6204 175.321H81.6189Z" fill="#233862"/>
<path d="M101.155 173.299C101.172 174.171 101.283 174.995 101.598 175.321H114.289C114.128 174.862 113.671 174.173 112.368 173.962C110.888 173.723 108.58 173.01 107.233 171.589C106.753 171.083 106.396 170.488 106.239 169.791C105.641 167.137 101.302 170.603 101.302 170.603C101.302 170.603 101.127 172.001 101.155 173.299Z" fill="#233862"/>
<path d="M92.567 144.042C92.7433 145.014 92.8563 145.812 92.8857 146.382C93.2895 154.241 99.5102 172.209 100.623 172.627C102.344 173.275 105.057 171.897 106.475 171.445C107.063 171.258 107.459 170.667 107.329 170.065C104.248 155.923 103.115 135.559 102.704 123.502C102.496 117.429 101.452 113.234 101.452 113.234C101.452 113.234 86.2788 109.191 86.1893 114.304C86.11 118.829 91.2145 136.575 92.5685 144.04L92.567 144.042Z" fill="#2B478B"/>
<path d="M92.5668 144.042L102.702 123.503C102.494 117.43 101.45 113.235 101.45 113.235C101.45 113.235 86.2771 109.192 86.1876 114.306C86.1083 118.831 91.2128 136.576 92.5668 144.042Z" fill="#233862"/>
<path d="M95.9429 114.323L87.9219 172.374C87.9219 172.374 84.3989 173.221 81.6601 172.544C81.6601 172.544 79.3119 141.669 79.5073 134.207C79.7026 126.742 77.8214 114.234 79.9361 112.855C82.0507 111.475 95.9414 114.325 95.9414 114.325L95.9429 114.323Z" fill="#2B478B"/>
<path d="M95.3733 61.0943C95.3733 61.0943 93.3658 60.9403 90.9985 59.9123C89.0777 59.0779 86.6532 59.9974 85.8661 60.4109C85.8866 60.2848 85.938 60.1117 86.0584 59.9387C86.0584 59.9387 85.7045 60.1895 85.6531 60.5385C85.6164 60.5649 85.6003 60.5839 85.6106 60.5898C85.6106 60.5898 85.2096 60.5165 84.9527 60.6323C84.9527 60.6323 85.1333 60.6059 85.1964 60.7218C85.2038 60.7335 85.2141 60.7438 85.2258 60.754C82.2286 62.2 81.9525 66.9307 82.9158 68.0247C84.0759 69.3415 85.4681 72.3067 85.4681 72.3067C85.4681 72.3067 85.9762 71.6057 85.7647 70.4472C85.5533 69.2887 86.5563 69.2887 87.8221 68.7623C89.088 68.2358 88.0336 66.7606 89.1409 65.8661C90.2481 64.9701 94.31 65.498 94.2572 64.8132C95.7653 64.2647 95.3747 61.2497 95.3747 61.0957L95.3733 61.0943Z" fill="#233862"/>
<path d="M84.4254 79.0815L86.2728 118.649C86.2728 118.649 101.685 118.9 101.246 115.417C100.805 111.934 95.6904 80.2928 95.6904 80.2928L84.4269 79.0815H84.4254Z" fill="#E9F3FE"/>
<path d="M78.9228 101.509C79.8392 104.256 78.1107 113.474 77.494 116.596C77.3588 117.256 77.2678 117.648 77.2678 117.648C79.403 121.116 87.2199 121.07 87.2199 121.07C88.7237 114.435 89.5049 103.867 89.5049 103.867L83.5061 77.6108L75.9594 84.5764C75.9594 84.5764 76.5306 88.8247 77.237 93.1478C77.7935 96.5704 78.425 100.053 78.9214 101.509H78.9228Z" fill="#22407A"/>
<path d="M91.749 71.5898C91.749 71.5898 91.8959 72.0415 93.0384 71.8773C93.0384 71.8773 93.9973 71.7394 93.9268 71.235C93.9268 71.235 92.962 70.9505 91.7505 71.5898H91.749Z" fill="white"/>
<path d="M100.412 79.6462C100.412 79.6462 100.412 79.6535 100.414 79.6623C100.779 80.0157 111.069 89.9904 113.061 93.8985C115.091 97.8623 103.786 105.758 103.786 105.758C103.786 105.758 103.059 106.045 102.554 105.932C103.087 110.314 103.685 114.358 103.331 116.084C102.691 119.203 99.8006 120.252 99.8006 120.011C99.8006 119.935 99.0561 108.636 98.1691 102.801C96.2028 89.8482 93.8561 77.6914 93.8561 77.6914C97.2205 78.0404 100.41 79.6462 100.41 79.6462H100.412ZM106.538 95.6098C106.553 95.5952 106.553 95.5644 106.553 95.5497C106.553 94.9793 104.372 93.7181 102.012 92.2326C101.983 92.2033 101.967 92.1872 101.967 92.1872C101.965 92.1872 101.964 92.1857 101.962 92.1842C102.005 93.3984 101.999 94.5892 101.927 95.6978C101.793 97.7552 101.943 100.213 102.191 102.716C103.315 100.964 106.316 96.2551 106.537 95.6098H106.538Z" fill="#22407A"/>
<path d="M83.9895 77.5625C83.9704 77.1842 85.762 76.6636 85.762 76.6636C85.762 76.6636 87.8121 79.5026 91.1897 79.551C91.1897 79.551 90.2278 81.4222 89.0926 81.9061C89.0926 81.9061 84.1011 79.8061 83.9895 77.5625Z" fill="#D9E9F9"/>
<path d="M95.9313 106.293C95.8491 107.217 95.4247 108.078 94.7404 108.707L93.6654 109.695C93.3952 109.943 92.9708 109.909 92.7447 109.622L91.4127 107.934C91.0559 107.481 90.8884 106.909 90.9428 106.336C91.0676 105.058 91.2996 102.596 91.4847 100.221C91.6359 98.2967 91.7563 96.4255 91.7666 95.289C91.796 91.6566 91.075 80.0747 91.075 80.0747L91.9472 80.1202C91.9472 80.1202 94.1133 84.6163 95.247 90.7343C95.5275 92.2403 95.7419 93.8431 95.8491 95.5031C95.8491 95.5031 96.3043 102.118 95.9313 106.296V106.293Z" fill="#C65447"/>
<path d="M95.9316 106.293C95.8493 107.217 95.4249 108.078 94.7406 108.707L93.6657 109.695C93.3955 109.943 92.971 109.91 92.7449 109.622L91.413 107.934C91.0561 107.481 90.8887 106.909 90.943 106.336C91.0679 105.059 91.2999 102.596 91.4849 100.221C93.8947 97.5181 94.8713 93.7816 95.2458 90.7329C95.5263 92.2389 95.7407 93.8418 95.8479 95.5018C95.8479 95.5018 96.3031 102.117 95.9301 106.295L95.9316 106.293Z" fill="#BA4C43"/>
<path d="M91.1884 79.4851C91.1884 79.4851 92.977 78.4264 92.9843 77.2781C92.9843 77.2781 94.1401 77.133 94.6452 77.6932C94.6452 77.6932 95.0696 79.6611 94.5072 80.8035C94.5072 80.8035 91.93 80.4119 91.1898 79.4851H91.1884Z" fill="#D9E9F9"/>
<path d="M89.9741 79.3151L92.4001 78.7344C92.4001 78.7344 92.7173 78.7622 92.7085 79.1567C92.6996 79.5512 92.0256 80.7038 91.726 80.7962C91.4264 80.8886 89.3999 80.1128 89.9741 79.3151Z" fill="#BA4C43"/>
<path d="M84.2716 77.3675C84.2525 76.9891 85.4655 76.2119 85.4655 76.2119C85.4655 76.2119 87.8122 78.9498 91.1898 78.9996C91.1898 78.9996 90.2279 80.8708 89.0927 81.3547C89.0927 81.3547 84.3832 79.6097 84.2716 77.3675Z" fill="#E9F3FE"/>
<path d="M91.1884 78.9994C91.1884 78.9994 92.9976 78.0418 93.0034 76.8936C93.0034 76.8936 94.096 77.3731 94.6012 77.9333C94.6012 77.9333 95.0682 79.1753 94.5057 80.3192C94.5057 80.3192 91.9285 79.9276 91.1884 79.0008V78.9994Z" fill="#E9F3FE"/>
<path d="M104.509 106.4C104.509 105.391 103.621 104.582 102.622 104.733C102.344 104.775 102.095 104.889 101.921 105.118C101.234 106.032 100.581 108.689 101.798 108.814C102.294 108.864 102.93 108.517 103.421 108.145C103.919 107.767 104.509 107.176 104.509 106.551V106.4Z" fill="#FFB27D"/>
<path d="M77.4941 116.596C79.7042 114.3 83.5223 109.78 83.3872 106.073C83.2066 100.879 77.2385 93.1479 77.2385 93.1479C77.7951 96.5706 78.4266 100.053 78.9229 101.51C79.8393 104.256 78.1108 113.474 77.4941 116.596Z" fill="#233862"/>
<path d="M77.5644 107.562C77.5644 107.562 79.1533 108.355 80.1181 107.957C81.0829 107.562 82.2166 107.262 83.296 108.488C84.3739 109.714 84.6015 110.563 84.3739 111.016C84.1462 111.47 81.6336 111.299 81.2166 111.016C80.7995 110.733 80.1401 110.035 79.7216 110.157C78.5674 110.493 77.5952 109.613 77.0504 108.912C76.7214 108.49 77.6084 108.284 77.5658 107.56L77.5644 107.562Z" fill="#FFB27D"/>
<path d="M83.5074 77.6108C83.5074 77.6108 77.1796 78.3103 75.6875 81.0614C74.1955 83.8124 66.4359 94.9647 66.6899 99.5986C66.944 104.233 77.275 109.43 77.275 109.43C77.275 109.43 79.563 108.465 79.5967 107.425C79.6305 106.387 72.4553 100.178 72.89 99.0194C73.3247 97.8609 81.2268 88.6971 81.9889 85.6763C82.7511 82.6554 83.5059 77.6108 83.5059 77.6108H83.5074Z" fill="#22407A"/>
<path d="M101.968 92.1857C101.968 92.1857 101.983 92.2018 102.014 92.2311C104.374 93.7166 106.555 94.9778 106.555 95.5482C106.87 94.5423 103.804 90.3394 102.811 89.483C101.804 88.612 101.97 92.1842 101.97 92.1842L101.968 92.1857Z" fill="#233862"/>
<path d="M85.4653 76.2119C85.4653 76.2119 90.2689 96.3021 89.5038 103.87C89.5038 103.87 87.7371 95.783 83.4872 89.1576C83.4872 89.1576 85.038 87.7953 84.9543 87.2938C84.9543 87.2938 83.803 86.9536 82.6854 87.1823C82.6854 87.1823 82.8088 78.5216 83.5049 77.6065C84.2009 76.6914 85.4639 76.2104 85.4639 76.2104L85.4653 76.2119Z" fill="#233862"/>
<path d="M93.0044 76.8936C92.9398 76.9243 97.7653 96.5262 98.1706 102.8C98.1706 102.8 97.689 91.6034 97.736 88.3772C97.736 88.3772 95.7403 87.3229 95.7403 86.9519C95.7403 86.5808 97.8681 85.5807 97.8681 85.5807C97.8681 85.5807 96.52 78.6855 95.7843 77.9259C95.0486 77.1663 93.0015 76.8936 93.0015 76.8936H93.0044Z" fill="#233862"/>
</g>
<defs>
<clipPath id="clip0_1013_6844">
<rect width="269" height="145" fill="white" transform="translate(20 31)"/>
</clipPath>
</defs>
</svg>
