<svg width="308" height="206" viewBox="0 0 308 206" fill="none" xmlns="http://www.w3.org/2000/svg">
<path d="M201.185 32.915C207.406 32.915 212.45 37.9552 212.45 44.1748V97.7866C212.45 99.8052 210.798 101.455 208.78 101.455H129.001C126.983 101.455 125.331 99.8052 125.331 97.7866V44.1761C125.331 37.9566 120.289 32.9164 114.067 32.9164H201.185V32.915Z" fill="url(#paint0_linear_1013_6842)"/>
<path d="M80.7765 143.343C93.4843 130.64 93.4843 110.045 80.7765 97.3425C68.0687 84.6397 47.4653 84.6397 34.7575 97.3425C22.0497 110.045 22.0497 130.64 34.7575 143.343C47.4653 156.046 68.0687 156.046 80.7765 143.343Z" fill="#9AEFE1"/>
<path d="M118.069 94.1148C118.069 79.1091 105.9 66.9419 90.8856 66.9419C75.8712 66.9419 63.7032 79.1077 63.7032 94.1148C63.7032 109.122 75.8725 121.288 90.8856 121.288C105.899 121.288 118.069 109.123 118.069 94.1148Z" fill="#76CEC1"/>
<path d="M284.43 107.345C284.43 86.586 267.595 69.7559 246.826 69.7559C226.057 69.7559 209.221 86.5846 209.221 107.345C209.221 128.106 226.057 144.933 246.826 144.933C267.595 144.933 284.43 128.104 284.43 107.345Z" fill="#9AEFE1"/>
<path d="M242.522 88.551C242.522 73.9895 230.711 62.1831 216.142 62.1831C201.574 62.1831 189.765 73.9895 189.765 88.551C189.765 103.113 201.575 114.92 216.142 114.92C230.71 114.92 242.522 103.114 242.522 88.551Z" fill="#76CEC1"/>
<path d="M256.704 129.654H256.701C256.582 107.155 238.301 88.9516 215.765 88.9516C212.65 88.9516 209.617 89.3014 206.7 89.9588C198.519 65.7788 175.631 48.3706 148.679 48.3706C117.183 48.3706 91.2445 72.1405 87.8266 102.712C87.6981 102.712 87.5696 102.707 87.441 102.707C70.7546 102.707 56.8722 114.703 53.9492 130.538C52.0802 129.964 50.0964 129.654 48.0375 129.654C36.9291 129.654 27.9235 138.656 27.9235 149.76C27.9235 160.864 36.9291 169.866 48.0375 169.866H256.704C267.813 169.866 276.818 160.864 276.818 149.76C276.818 138.656 267.813 129.654 256.704 129.654Z" fill="#54B0A5"/>
<path d="M114.991 32.915C108.769 32.915 103.727 37.9552 103.727 44.1748V142.872C103.727 144.889 105.377 146.539 107.395 146.539H187.176C189.194 146.539 190.845 144.889 190.845 142.872V44.1761C190.845 37.9566 195.887 32.9164 202.109 32.9164H114.991V32.915Z" fill="#F5F5F5"/>
<path d="M186.696 118.405C186.671 118.464 184.933 119.288 184.09 119.557C183.343 119.795 183.104 119.185 183.799 118.262C184.575 117.226 185.781 116.887 186.664 116.347C187.547 115.806 186.825 118.099 186.696 118.406V118.405Z" fill="#FE7D7C"/>
<path d="M229.088 117.065C229.124 117.116 228.742 119.48 228.248 120.214C227.753 120.949 227.137 120.452 227.137 119.297C227.137 118.142 227.316 117.086 227.295 116.051C227.275 115.014 228.889 116.8 229.089 117.065H229.088Z" fill="#FE7D7C"/>
<path d="M201.196 83.217C201.196 83.217 197.942 82.0034 198.271 76.545C198.602 71.0867 207.981 70.1328 210.702 74.8367C213.423 79.5407 209.194 82.3942 210.186 84.4661C211.217 86.6171 206.688 88.3637 204.906 84.246C203.128 80.1297 201.196 83.217 201.196 83.217Z" fill="#3E3C9B"/>
<path d="M184.861 116.993L185.349 119.131C185.349 119.131 213.659 110.436 204.823 90.0608C203.33 86.6196 196.113 90.5296 198.552 95.1666C204.936 107.301 184.859 116.992 184.859 116.992L184.861 116.993Z" fill="#343489"/>
<path d="M188.591 170.718C189.686 166.799 191.421 161.785 191.503 161.554L193.4 162.212C193.382 162.264 191.852 166.911 190.762 170.718H188.591Z" fill="#FE7D7C"/>
<path d="M191.466 169.946C191.103 169.647 186.363 170.966 183.551 171.656C180.737 172.346 180.066 174.154 183.707 174.154H189.755C189.755 174.154 190.776 174.329 191.245 173.144C191.595 172.259 191.799 170.222 191.466 169.946Z" fill="#050505"/>
<path d="M233.43 169.778C230.935 166.561 227.944 162.177 227.805 161.976L229.467 160.847C229.497 160.892 232.316 164.891 234.725 168.036L233.431 169.778H233.43Z" fill="#FE7D7C"/>
<path d="M234.522 167.011C234.164 167.096 232.377 171.346 232.377 171.346C232.377 171.346 232.072 171.486 230.914 171.643C228.089 172.275 227.38 174.07 231.019 174.145C231.731 174.159 234.36 174.223 234.724 173.734C236.22 171.722 236.882 170.892 236.882 170.892C236.882 170.892 237.631 170.178 236.959 169.095C236.456 168.286 234.941 166.907 234.523 167.013L234.522 167.011Z" fill="#050505"/>
<path d="M197.895 119.248C197.16 124.688 188.395 167.519 188.395 167.519C188.395 167.519 191.839 167.63 192.611 167.299C193.382 166.969 201.735 147.12 205.485 134.659C209.235 122.199 211.111 116.906 207.802 114.26C204.491 111.612 198.602 114.021 197.895 119.247V119.248Z" fill="url(#paint1_linear_1013_6842)"/>
<path d="M230.28 167.317C230.28 167.317 232.472 164.66 232.68 163.847C232.857 163.165 225.417 149.877 218.544 139.367C218.544 139.367 215.74 136.749 212.227 139.613C208.95 142.282 211.292 145.429 211.292 145.429C220.263 155.709 230.28 167.318 230.28 167.318V167.317Z" fill="url(#paint2_linear_1013_6842)"/>
<path d="M215.44 115.289C215.44 115.289 204.082 115.654 205.512 120.73C206.117 122.883 208.666 134.813 210.648 143.995C210.648 143.995 211.417 147.562 215.448 146.809C220.157 145.929 219.929 142.197 219.929 142.197C219.75 139.787 219.54 137.478 219.297 135.392C217.785 122.468 215.44 115.288 215.44 115.288V115.289Z" fill="url(#paint3_linear_1013_6842)"/>
<path d="M208.632 88.9321C212.049 89.1753 212.995 89.8067 213.603 92.8502C214.21 95.8951 216.836 118.378 216.836 118.378C216.836 118.378 213.619 121.469 205.747 121.442C197.872 121.413 197.517 118.502 197.517 118.502C197.517 118.502 199.097 98.627 199.618 94.5749C200.068 91.0736 200.842 88.8255 205.02 88.5726C207.371 88.4291 208.632 88.9321 208.632 88.9321Z" fill="#FECD6C"/>
<path d="M200.471 78.9613C200.471 78.9613 199.995 85.0237 201.382 86.2346C202.768 87.4454 205.02 86.2346 205.02 86.2346C205.02 86.2346 205.062 88.1396 205.02 88.5729C204.978 89.0047 200.429 93.378 203.721 93.7675C207.012 94.157 208.657 89.222 208.657 89.222L207.963 81.2573C207.963 81.2573 209.35 79.8934 208.527 78.703C207.704 77.5127 206.513 79.5462 206.513 79.5462L206.577 76.2349C206.577 76.2349 202.507 79.2428 200.47 78.9613H200.471Z" fill="#FFB680"/>
<path d="M209.559 88.7515C209.559 88.7515 207.276 93.2081 206.688 96.7832C205.563 103.629 202.718 126.719 203.047 127.384C203.378 128.044 208.688 128.704 213.308 127.384C217.925 126.061 218.381 122.971 218.381 122.971C218.381 122.971 214.299 95.1419 213.82 92.3485C213.342 89.555 212.381 88.8294 209.559 88.7515Z" fill="#3C3A9A"/>
<path d="M204.041 88.5317C204.041 88.5317 201.908 90.8837 200.696 95.9567C199.482 101.03 199.145 111.669 198.254 116.687C197.362 121.707 197.124 124.016 197.092 123.663C196.917 121.76 197.023 120.731 197.518 114.189C198.01 107.646 199.151 94.9645 199.814 91.6572C200.474 88.3486 202.608 88.6793 204.042 88.5331L204.041 88.5317Z" fill="#3C3A9A"/>
<path d="M227.046 117.349L229.201 117.764C229.201 117.764 232.401 102.119 230.032 97.7935C228.063 94.1993 223.906 89.3819 211.567 88.976C209.703 88.9145 208.509 96.2082 213.72 96.7685C221.222 97.5762 222.297 98.0682 224.469 100.07C227.655 103.006 227.045 117.35 227.045 117.35L227.046 117.349Z" fill="#3C3A9A"/>
<path d="M191.264 116.16C186.144 116.16 181.992 120.307 181.992 125.427C181.992 130.546 186.144 134.695 191.264 134.695H201.19V116.16H191.264Z" fill="#FECD6C"/>
<path style="mix-blend-mode:multiply" d="M201.189 116.16H192.157V134.695H201.189V116.16Z" fill="url(#paint4_linear_1013_6842)"/>
<path d="M226.982 116.16H194.104V134.695H226.982V116.16Z" fill="#164DDD"/>
<path style="mix-blend-mode:multiply" d="M226.982 122.264H194.104V128.59H226.982V122.264Z" fill="url(#paint5_linear_1013_6842)"/>
<path d="M226.633 117.328C226.633 117.328 228.165 117.336 228.241 118.665C228.319 119.993 228.221 120.413 228.221 120.413C228.221 120.413 228.062 120.879 227.749 121.185C227.441 121.49 227.018 121.438 227.018 121.438L226.633 117.328Z" fill="#FE7D7C"/>
<path d="M226.944 120.628C226.465 120.387 224.83 120.956 224.591 119.869C224.353 118.781 224.096 117.328 224.771 117.271C225.447 117.215 226.941 117.133 227.606 117.564C228.269 117.992 227.473 120.242 227.473 120.242L226.943 120.628H226.944Z" fill="#FE7D7C"/>
<path d="M184.198 117.816C183.1 119.083 182 120.478 181.825 121.563C181.649 122.647 181.98 123.545 182.532 122.247C183.082 120.947 183.75 120.063 183.954 120.153C184.156 120.242 184.342 120.88 184.675 120.736C185.066 120.568 184.561 119.349 184.902 118.678C185.242 118.007 184.198 117.816 184.198 117.816Z" fill="#FE7D7C"/>
<path d="M138.199 39.3027L138.541 46.5569H137.674C137.506 45.279 137.277 44.3661 136.989 43.8195C136.517 42.9366 135.89 42.2875 135.106 41.8693C134.323 41.4511 133.292 41.242 132.014 41.242H127.655V64.8712C127.655 66.7735 127.86 67.9598 128.27 68.4299C128.849 69.0681 129.739 69.3879 130.941 69.3879H132.012V70.2311H118.892V69.3879H119.987C121.295 69.3879 122.223 68.9916 122.77 68.2017C123.105 67.7151 123.272 66.6041 123.272 64.8698V41.242H119.553C118.107 41.242 117.08 41.3486 116.473 41.5604C115.681 41.8501 115.005 42.4036 114.443 43.2264C113.879 44.0477 113.544 45.1574 113.438 46.5569H112.571L112.936 39.3027H138.198H138.199Z" fill="#54B0A5"/>
<path d="M183.387 39.0513H153.854V41.4429H183.387V39.0513Z" fill="#DDDDDD"/>
<path d="M183.387 44.2559H144.008V46.6475H183.387V44.2559Z" fill="#DDDDDD"/>
<path d="M183.387 49.4609H144.008V51.8526H183.387V49.4609Z" fill="#DDDDDD"/>
<path d="M183.387 54.6636H144.008V57.0552H183.387V54.6636Z" fill="#DDDDDD"/>
<path d="M183.387 65.0747H144.008V67.4663H183.387V65.0747Z" fill="#DDDDDD"/>
<path d="M183.386 75.4834H109.734V77.875H183.386V75.4834Z" fill="#DDDDDD"/>
<path d="M183.386 80.6875H109.734V83.0791H183.386V80.6875Z" fill="#DDDDDD"/>
<path d="M183.386 85.8916H109.734V88.2832H183.386V85.8916Z" fill="#DDDDDD"/>
<path d="M183.386 91.0972H109.734V93.4888H183.386V91.0972Z" fill="#DDDDDD"/>
<path d="M183.387 70.2793H144.008V72.6709H183.387V70.2793Z" fill="#DDDDDD"/>
<path d="M183.387 59.8691H144.008V62.2608H183.387V59.8691Z" fill="#DDDDDD"/>
<path d="M76.3232 95.9225C76.3232 95.9225 79.0959 92.8147 81.1603 87.4069C83.2234 81.9992 82.2199 74.3596 78.0924 73.3565C73.9635 72.3548 68.1625 74.9746 67.6061 80.2157C67.0483 85.4554 67.6061 85.8025 67.6061 85.8025C67.6061 85.8025 58.6073 84.8609 53.2903 93.1865C47.972 101.513 50.8895 105.694 50.8895 105.694C50.8895 105.694 39.773 112.926 41.9481 125.199C44.1247 137.471 65.0399 137.975 71.5654 121.416C78.091 104.856 72.7781 101.486 76.3219 95.9225H76.3232Z" fill="#3C3A9A"/>
<path d="M92.5953 97.36C102.629 93.8751 110.802 89.1738 110.802 89.1738L112.521 90.069C112.521 90.069 103.797 96.7122 93.89 100.975C93.89 100.975 92.6774 101.426 91.9063 99.6491C91.1803 97.9736 92.4928 97.3942 92.4928 97.3942C92.527 97.3819 92.5611 97.3709 92.5953 97.36Z" fill="#FE7D7C"/>
<path d="M75.0616 90.8764C75.0616 90.8764 83.3467 94.8288 93.6388 97.2573C93.6388 97.2573 95.3123 97.7411 94.95 99.5136C94.5672 101.395 92.8978 101.026 92.8978 101.026C92.8595 101.021 92.8185 101.016 92.7789 101.01C82.9434 99.4166 74.1647 95.5257 73.3116 93.6494C72.4584 91.7743 73.6479 90.4091 75.0616 90.8751V90.8764Z" fill="#FE7D7C"/>
<path d="M84.9556 93.2873L83.3847 100.365C83.3847 100.365 75.2103 98.2482 72.1724 96.0616C69.1332 93.8736 71.3808 86.599 75.9103 89.2379C80.7009 92.03 84.9556 93.2887 84.9556 93.2887V93.2873Z" fill="#FECD6C"/>
<path d="M88.8396 170.602C88.8396 170.602 88.4582 174 90.5705 174C92.9576 174 98.7544 174.617 98.7544 173.717C98.7544 171.861 95.573 170.862 93.3581 170.251C91.1433 169.64 89.0201 168.996 88.8396 170.602Z" fill="#050505"/>
<path d="M89.615 170.933C88.5896 167.003 86.4691 160.562 86.4486 160.5L88.3449 159.843C88.4338 160.096 90.505 166.075 91.5482 170.08C91.5482 170.08 98.2583 171.907 97.3218 172.447C96.3867 172.987 89.6164 170.933 89.6164 170.933H89.615Z" fill="#FE7D7C"/>
<path d="M26.391 150.719C26.391 150.719 24.2951 150.309 23.9779 152.395C23.6621 154.48 23.0988 160.424 24.3265 160.757C25.2412 161.006 26.3513 157.574 26.9187 155.349C27.4875 153.124 27.9988 150.868 26.3896 150.719H26.391Z" fill="#050505"/>
<path d="M25.9621 151.274C29.6084 149.481 35.4928 146.111 35.5502 146.078L36.5756 147.804C36.3445 147.941 30.9045 151.169 27.1871 152.996C27.1871 152.996 25.8486 159.03 25.2211 159.028C24.6893 159.028 25.9621 151.274 25.9621 151.274Z" fill="#FE7D7C"/>
<path d="M79.298 117.412C82.4261 111.739 71.0539 108.836 67.6496 113.333C65.3076 116.43 60.1684 126.848 56.6041 134.151L60.8191 139.265C64.1646 137.977 79.298 117.412 79.298 117.412Z" fill="#0D42BA"/>
<path d="M55.1957 141.519C57.0182 140.806 58.92 140.04 60.819 139.267L57.7209 131.929C56.1856 133.061 54.7924 134.05 53.6481 134.78C48.9628 137.769 34.7687 144.375 34.3462 145.81C33.9237 147.245 35.6054 150 36.0196 149.929C36.4298 149.855 44.8721 145.574 55.1944 141.52L55.1957 141.519Z" fill="#0D42BA"/>
<path d="M73.0588 87.147C73.0588 87.147 76.6764 88.7446 77.2328 89.4539C79.3971 92.2145 81.4273 103.42 82.5758 112.953C83.6258 121.668 82.9094 125.149 82.9094 125.149C82.9094 125.149 79.8988 129.511 68.018 127.885C56.6745 126.333 56.9739 122.32 56.9739 122.32L73.0588 87.1483V87.147Z" fill="#F5B327"/>
<path d="M79.9409 116.668C79.9409 116.668 84.6768 134.33 86.852 145.202C89.0272 156.075 90.2822 161.175 90.2822 161.593C90.2822 162.012 87.2704 163.183 85.9319 162.514C84.5934 161.845 80.3087 145.788 79.9409 145.537C79.5731 145.285 67.181 120.359 66.671 115.595C66.1597 110.831 77.7151 110.938 79.9409 116.668Z" fill="#164DDD"/>
<path d="M75.9953 88.9088C75.9953 88.9088 77.8916 89.6482 78.3373 96.562C78.783 103.476 79.565 110.39 80.1228 115.741C80.3881 118.29 74.8154 119.582 70.0618 117.748C67.62 116.806 65.6061 114.92 65.7332 113.847C66.4018 108.161 70.0836 88.2132 73.0395 87.195C75.9967 86.1783 75.9967 88.9102 75.9967 88.9102L75.9953 88.9088Z" fill="#F5F5F5"/>
<path d="M73.0591 87.1472C73.0591 87.1472 70.8634 86.9012 69.8585 90.7483C68.855 94.5954 63.0828 104.882 57.7275 110.485C52.3736 116.089 51.042 117.437 51.042 117.437C51.042 117.437 52.5678 123.698 61.449 128.465C67.98 131.969 72.5341 130.471 72.5341 130.471C72.5341 130.471 74.8775 113.105 75.881 101.286C76.8845 89.4678 77.1921 89.9133 75.9931 88.9088C74.7941 87.9057 73.0577 87.1472 73.0577 87.1472H73.0591Z" fill="#FECD6C"/>
<path d="M80.9571 77.7021C80.9571 77.7021 82.2956 83.7235 80.4553 86.1766C78.6151 88.6297 76.161 85.7857 75.9942 86.1766C75.826 86.5661 75.9942 88.5176 75.9942 88.9085C75.9942 89.2993 73.037 88.0721 73.037 87.5131C73.037 86.9542 73.4841 83.3422 73.4841 83.3422C73.4841 83.3422 77.386 81.7159 80.9571 77.7007V77.7021Z" fill="#FE7D7C"/>
<path d="M54.7282 84.3086C54.2333 73.7021 55.6374 63.7393 55.6374 63.7393L54.0884 63.1079C54.0884 63.1079 51.1626 73.672 50.8892 84.4521C50.8892 84.4521 50.9206 85.7435 52.8552 85.7982C54.6817 85.8488 54.7323 84.4152 54.7323 84.4152C54.7323 84.3796 54.7282 84.3441 54.7268 84.3072L54.7282 84.3086Z" fill="#FE7D7C"/>
<path d="M71.8361 89.801C71.8361 89.801 63.0082 87.2837 53.684 82.2996C53.684 82.2996 52.1103 81.5548 51.2066 83.125C50.2496 84.7896 51.7439 85.6164 51.7439 85.6164C51.7768 85.6396 51.8109 85.6601 51.8451 85.682C60.2738 90.9941 69.4326 93.8832 71.3138 93.04C73.195 92.1981 73.206 90.3887 71.8374 89.8024L71.8361 89.801Z" fill="#FE7D7C"/>
<path d="M62.8209 85.0645L59.3141 91.4125C59.3141 91.4125 66.8459 95.2322 70.5715 95.5999C74.297 95.9689 77.3172 89.4787 72.2846 88.0109C66.9088 86.4434 62.8209 85.0645 62.8209 85.0645Z" fill="#FECD6C"/>
<path d="M65.1369 87.2549L62.7266 91.7293L60.7428 91.1963L62.9262 92.2924L65.7563 87.0322L63.2789 86.1616L65.1369 87.2549Z" fill="#F5B327"/>
<path d="M53.1702 61.8901C53.1702 61.8901 52.6671 63.336 53.8934 63.8526C55.1198 64.3665 55.5491 64.4157 55.5491 64.4157C55.5491 64.4157 56.0413 64.4212 56.435 64.2285C56.8233 64.0399 56.9176 63.6244 56.9176 63.6244L53.1702 61.8901Z" fill="#FE7D7C"/>
<path d="M109.837 88.1147C109.837 88.1147 109.334 89.5606 110.56 90.0759C111.785 90.5911 112.216 90.6389 112.216 90.6389C112.216 90.6389 112.708 90.6444 113.102 90.4531C113.49 90.2631 113.585 89.849 113.585 89.849L109.837 88.1147Z" fill="#FE7D7C"/>
<path d="M68.4146 119.39L66.1451 122.07C65.7158 122.023 64.6302 121.836 63.2603 121.093C61.3927 120.079 60.4056 119.015 60.0488 118.579L61.7318 115.636L59.0808 118.481L59.0726 118.733L59.1478 118.85C59.1888 118.913 60.1855 120.429 62.8379 121.869C64.8449 122.957 66.2968 122.97 66.3584 122.97H66.4814L66.6673 122.871L68.4146 119.391V119.39Z" fill="#F5B327"/>
<path d="M115.656 90.8154L47.9624 59.5057L50.154 54.7676L117.85 86.0759L122.824 91.0942L115.656 90.8154Z" fill="#FED06E"/>
<path d="M120.242 90.9913L122.824 91.0938L121.004 89.2598L120.242 90.9913Z" fill="#F5B327"/>
<path style="mix-blend-mode:multiply" d="M48.6268 58.069L116.322 89.3759L117.091 87.7141L49.3966 56.4058L48.6268 58.069Z" fill="url(#paint6_linear_1013_6842)"/>
<path d="M49.9092 54.658L45.6628 52.5356L43.4725 57.5129L47.7778 59.5055L49.9092 54.658Z" fill="#FE7D7C"/>
<path d="M50.8856 54.7699L49.0863 53.8706L46.691 59.3139L48.5149 60.1571L50.8856 54.7699Z" fill="#F5B327"/>
<path d="M56.1779 63.2814C56.1096 62.7497 57.1938 61.3995 56.2477 60.8118C55.303 60.2242 54.0164 59.4971 53.7375 60.1149C53.4586 60.7312 52.8844 62.1129 53.0676 62.8823C53.2522 63.6517 55.6379 63.6517 55.6379 63.6517L56.1793 63.28L56.1779 63.2814Z" fill="#FE7D7C"/>
<path d="M111.208 99.0181V109.666H121.86V99.0181H111.208ZM119.999 107.759H113.071V100.923H119.999V107.759Z" fill="#76CEC1"/>
<path d="M116.562 107.2C116.163 107.2 115.78 107.042 115.497 106.759L110.221 101.485C109.632 100.897 109.632 99.9432 110.221 99.3542C110.809 98.7652 111.765 98.7652 112.353 99.3542L116.563 103.563L123.788 96.3422C124.376 95.7531 125.33 95.7531 125.919 96.3422C126.508 96.9312 126.508 97.8837 125.919 98.4727L117.63 106.759C117.347 107.042 116.964 107.2 116.565 107.2H116.562Z" fill="url(#paint7_linear_1013_6842)"/>
<g style="mix-blend-mode:multiply">
<path d="M116.562 107.2C116.163 107.2 115.78 107.042 115.497 106.759L110.221 101.485C109.632 100.897 109.632 99.9432 110.221 99.3542C110.809 98.7652 111.765 98.7652 112.353 99.3542L116.563 103.563L123.788 96.3422C124.376 95.7531 125.33 95.7531 125.919 96.3422C126.508 96.9312 126.508 97.8837 125.919 98.4727L117.63 106.759C117.347 107.042 116.964 107.2 116.565 107.2H116.562Z" fill="#54B0A5"/>
</g>
<path d="M173.166 99.0181H129.33C128.952 99.0181 128.646 99.324 128.646 99.7014V100.726C128.646 101.104 128.952 101.41 129.33 101.41H173.166C173.543 101.41 173.85 101.104 173.85 100.726V99.7014C173.85 99.324 173.543 99.0181 173.166 99.0181Z" fill="#9AEFE1"/>
<path d="M180.344 103.469H129.33C128.953 103.469 128.646 103.775 128.646 104.153V105.178C128.646 105.555 128.953 105.861 129.33 105.861H180.344C180.721 105.861 181.027 105.555 181.027 105.178V104.153C181.027 103.775 180.721 103.469 180.344 103.469Z" fill="#9AEFE1"/>
<path d="M153.968 107.922H129.33C128.953 107.922 128.646 108.228 128.646 108.605V109.63C128.646 110.008 128.953 110.313 129.33 110.313H153.968C154.346 110.313 154.652 110.008 154.652 109.63V108.605C154.652 108.228 154.346 107.922 153.968 107.922Z" fill="#9AEFE1"/>
<path d="M111.208 114.542V125.188H121.86V114.542H111.208ZM119.999 123.283H113.071V116.445H119.999V123.283Z" fill="#76CEC1"/>
<path d="M116.562 122.724C116.163 122.724 115.78 122.565 115.497 122.282L110.221 117.008C109.632 116.419 109.632 115.467 110.221 114.878C110.809 114.289 111.765 114.289 112.353 114.878L116.563 119.087L123.788 111.866C124.376 111.277 125.33 111.277 125.919 111.866C126.508 112.455 126.508 113.407 125.919 113.996L117.63 122.282C117.347 122.565 116.964 122.724 116.565 122.724H116.562Z" fill="url(#paint8_linear_1013_6842)"/>
<g style="mix-blend-mode:multiply">
<path d="M116.562 122.724C116.163 122.724 115.78 122.565 115.497 122.282L110.221 117.008C109.632 116.419 109.632 115.467 110.221 114.878C110.809 114.289 111.765 114.289 112.353 114.878L116.563 119.087L123.788 111.866C124.376 111.277 125.33 111.277 125.919 111.866C126.508 112.455 126.508 113.407 125.919 113.996L117.63 122.282C117.347 122.565 116.964 122.724 116.565 122.724H116.562Z" fill="#54B0A5"/>
</g>
<path d="M173.166 114.542H129.33C128.952 114.542 128.646 114.847 128.646 115.225V116.25C128.646 116.627 128.952 116.933 129.33 116.933H173.166C173.543 116.933 173.85 116.627 173.85 116.25V115.225C173.85 114.847 173.543 114.542 173.166 114.542Z" fill="#9AEFE1"/>
<path d="M180.344 118.994H129.33C128.953 118.994 128.646 119.3 128.646 119.677V120.702C128.646 121.079 128.953 121.385 129.33 121.385H180.344C180.721 121.385 181.027 121.079 181.027 120.702V119.677C181.027 119.3 180.721 118.994 180.344 118.994Z" fill="#9AEFE1"/>
<path d="M153.968 123.446H129.33C128.953 123.446 128.646 123.752 128.646 124.13V125.155C128.646 125.532 128.953 125.838 129.33 125.838H153.968C154.346 125.838 154.652 125.532 154.652 125.155V124.13C154.652 123.752 154.346 123.446 153.968 123.446Z" fill="#9AEFE1"/>
<path d="M111.208 130.064V140.711H121.86V130.064H111.208ZM119.999 138.805H113.071V131.969H119.999V138.805Z" fill="#76CEC1"/>
<path d="M116.562 138.247C116.163 138.247 115.78 138.089 115.497 137.806L110.221 132.532C109.632 131.945 109.632 130.991 110.221 130.402C110.809 129.813 111.765 129.813 112.353 130.402L116.563 134.611L123.788 127.39C124.376 126.8 125.33 126.8 125.919 127.39C126.508 127.979 126.508 128.931 125.919 129.52L117.63 137.806C117.347 138.089 116.964 138.247 116.565 138.247H116.562Z" fill="url(#paint9_linear_1013_6842)"/>
<g style="mix-blend-mode:multiply">
<path d="M116.562 138.247C116.163 138.247 115.78 138.089 115.497 137.806L110.221 132.532C109.632 131.945 109.632 130.991 110.221 130.402C110.809 129.813 111.765 129.813 112.353 130.402L116.563 134.611L123.788 127.39C124.376 126.8 125.33 126.8 125.919 127.39C126.508 127.979 126.508 128.931 125.919 129.52L117.63 137.806C117.347 138.089 116.964 138.247 116.565 138.247H116.562Z" fill="#54B0A5"/>
</g>
<path d="M173.166 130.064H129.33C128.952 130.064 128.646 130.37 128.646 130.747V131.772C128.646 132.15 128.952 132.456 129.33 132.456H173.166C173.543 132.456 173.85 132.15 173.85 131.772V130.747C173.85 130.37 173.543 130.064 173.166 130.064Z" fill="#9AEFE1"/>
<path d="M180.344 134.517H129.33C128.953 134.517 128.646 134.823 128.646 135.2V136.225C128.646 136.602 128.953 136.908 129.33 136.908H180.344C180.721 136.908 181.027 136.602 181.027 136.225V135.2C181.027 134.823 180.721 134.517 180.344 134.517Z" fill="#9AEFE1"/>
<path d="M153.968 138.969H129.33C128.953 138.969 128.646 139.275 128.646 139.653V140.678C128.646 141.055 128.953 141.361 129.33 141.361H153.968C154.346 141.361 154.652 141.055 154.652 140.678V139.653C154.652 139.275 154.346 138.969 153.968 138.969Z" fill="#9AEFE1"/>
<defs>
<linearGradient id="paint0_linear_1013_6842" x1="163.258" y1="33.243" x2="163.258" y2="101.326" gradientUnits="userSpaceOnUse">
<stop stop-color="#DBDBDB"/>
<stop offset="0.42" stop-color="#EBEBEB"/>
<stop offset="1" stop-color="white"/>
</linearGradient>
<linearGradient id="paint1_linear_1013_6842" x1="203.829" y1="121.179" x2="185.971" y2="170.364" gradientUnits="userSpaceOnUse">
<stop stop-color="#A6E3FF"/>
<stop offset="0.45" stop-color="#B8EAFE"/>
<stop offset="1" stop-color="#CCF3FE"/>
</linearGradient>
<linearGradient id="paint2_linear_1013_6842" x1="240.919" y1="156.128" x2="199.546" y2="148.346" gradientUnits="userSpaceOnUse">
<stop stop-color="#A6E3FF"/>
<stop offset="0.45" stop-color="#B8EAFE"/>
<stop offset="1" stop-color="#CCF3FE"/>
</linearGradient>
<linearGradient id="paint3_linear_1013_6842" x1="237.638" y1="150.496" x2="203.999" y2="122.678" gradientUnits="userSpaceOnUse">
<stop stop-color="#A6E3FF"/>
<stop offset="0.45" stop-color="#B8EAFE"/>
<stop offset="1" stop-color="#CCF3FE"/>
</linearGradient>
<linearGradient id="paint4_linear_1013_6842" x1="196.674" y1="154.024" x2="196.674" y2="113.868" gradientUnits="userSpaceOnUse">
<stop stop-color="#F5B327"/>
<stop offset="0.11" stop-color="#F5B838"/>
<stop offset="0.34" stop-color="#F7C864"/>
<stop offset="0.66" stop-color="#FBE1AC"/>
<stop offset="1" stop-color="white"/>
</linearGradient>
<linearGradient id="paint5_linear_1013_6842" x1="242.817" y1="125.428" x2="160.137" y2="125.428" gradientUnits="userSpaceOnUse">
<stop stop-color="#86A2F3"/>
<stop offset="0.39" stop-color="#BACAF8"/>
<stop offset="0.8" stop-color="#EBF0FD"/>
<stop offset="1" stop-color="white"/>
</linearGradient>
<linearGradient id="paint6_linear_1013_6842" x1="-22.8098" y1="23.0748" x2="134.443" y2="97.2688" gradientUnits="userSpaceOnUse">
<stop stop-color="#F5B327"/>
<stop offset="0.11" stop-color="#F5B838"/>
<stop offset="0.34" stop-color="#F7C864"/>
<stop offset="0.66" stop-color="#FBE1AC"/>
<stop offset="1" stop-color="white"/>
</linearGradient>
<linearGradient id="paint7_linear_1013_6842" x1="118.069" y1="103.192" x2="118.069" y2="94.8922" gradientUnits="userSpaceOnUse">
<stop stop-color="#A6E3FF"/>
<stop offset="0.45" stop-color="#B8EAFE"/>
<stop offset="1" stop-color="#CCF3FE"/>
</linearGradient>
<linearGradient id="paint8_linear_1013_6842" x1="118.069" y1="118.715" x2="118.069" y2="110.417" gradientUnits="userSpaceOnUse">
<stop stop-color="#A6E3FF"/>
<stop offset="0.45" stop-color="#B8EAFE"/>
<stop offset="1" stop-color="#CCF3FE"/>
</linearGradient>
<linearGradient id="paint9_linear_1013_6842" x1="118.069" y1="134.238" x2="118.069" y2="125.94" gradientUnits="userSpaceOnUse">
<stop stop-color="#A6E3FF"/>
<stop offset="0.45" stop-color="#B8EAFE"/>
<stop offset="1" stop-color="#CCF3FE"/>
</linearGradient>
</defs>
</svg>
