<svg width="308" height="206" fill="none" xmlns="http://www.w3.org/2000/svg"><path d="M201.185 32.915c6.221 0 11.265 5.04 11.265 11.26v53.612a3.68 3.68 0 01-3.67 3.668h-79.779a3.68 3.68 0 01-3.67-3.668v-53.61c0-6.22-5.042-11.26-11.264-11.26h87.118v-.002z" fill="url(#paint0_linear_1013_6842)"/><path d="M80.776 143.343c12.708-12.703 12.708-33.298 0-46-12.707-12.703-33.31-12.703-46.018 0-12.708 12.702-12.708 33.297 0 46 12.707 12.703 33.31 12.703 46.018 0z" fill="#9AEFE1"/><path d="M118.069 94.115c0-15.006-12.169-27.173-27.183-27.173-15.015 0-27.183 12.166-27.183 27.173 0 15.007 12.17 27.173 27.183 27.173s27.183-12.165 27.183-27.173z" fill="#76CEC1"/><path d="M284.43 107.345c0-20.759-16.835-37.59-37.604-37.59s-37.605 16.83-37.605 37.59c0 20.761 16.836 37.588 37.605 37.588s37.604-16.829 37.604-37.588z" fill="#9AEFE1"/><path d="M242.522 88.551c0-14.561-11.811-26.368-26.38-26.368-14.568 0-26.377 11.807-26.377 26.368 0 14.562 11.81 26.369 26.377 26.369 14.568 0 26.38-11.806 26.38-26.369z" fill="#76CEC1"/><path d="M256.704 129.654h-.003c-.119-22.499-18.4-40.702-40.936-40.702-3.115 0-6.148.35-9.065 1.007-8.181-24.18-31.069-41.588-58.021-41.588-31.496 0-57.434 23.77-60.852 54.341-.129 0-.257-.005-.386-.005-16.686 0-30.569 11.996-33.492 27.831a20.1 20.1 0 00-5.911-.884c-11.109 0-20.114 9.002-20.114 20.106 0 11.104 9.005 20.106 20.114 20.106h208.666c11.109 0 20.114-9.002 20.114-20.106 0-11.104-9.005-20.106-20.114-20.106z" fill="#54B0A5"/><path d="M114.991 32.915c-6.222 0-11.264 5.04-11.264 11.26v98.697a3.678 3.678 0 003.668 3.667h79.781a3.679 3.679 0 003.669-3.667V44.176c0-6.22 5.042-11.26 11.264-11.26h-87.118v-.001z" fill="#F5F5F5"/><path d="M186.696 118.405c-.025.059-1.763.883-2.606 1.152-.747.238-.986-.372-.291-1.295.776-1.036 1.982-1.375 2.865-1.915.883-.541.161 1.752.032 2.059v-.001zm42.392-1.34c.036.051-.346 2.415-.84 3.149-.495.735-1.111.238-1.111-.917s.179-2.211.158-3.246c-.02-1.037 1.594.749 1.794 1.014h-.001z" fill="#FE7D7C"/><path d="M201.196 83.217s-3.254-1.214-2.925-6.672c.331-5.458 9.71-6.412 12.431-1.708 2.721 4.704-1.508 7.557-.516 9.63 1.031 2.15-3.498 3.897-5.28-.221-1.778-4.116-3.71-1.029-3.71-1.029z" fill="#3E3C9B"/><path d="M184.861 116.993l.488 2.138s28.31-8.695 19.474-29.07c-1.493-3.441-8.71.469-6.271 5.106 6.384 12.134-13.693 21.825-13.693 21.825l.002.001z" fill="#343489"/><path d="M188.591 170.718c1.095-3.919 2.83-8.933 2.912-9.164l1.897.658c-.018.052-1.548 4.699-2.638 8.506h-2.171z" fill="#FE7D7C"/><path d="M191.466 169.946c-.363-.299-5.103 1.02-7.915 1.71-2.814.69-3.485 2.498.156 2.498h6.048s1.021.175 1.49-1.01c.35-.885.554-2.922.221-3.198z" fill="#050505"/><path d="M233.43 169.778c-2.495-3.217-5.486-7.601-5.625-7.802l1.662-1.129c.03.045 2.849 4.044 5.258 7.189l-1.294 1.742h-.001z" fill="#FE7D7C"/><path d="M234.522 167.011c-.358.085-2.145 4.335-2.145 4.335s-.305.14-1.463.297c-2.825.632-3.534 2.427.105 2.502.712.014 3.341.078 3.705-.411 1.496-2.012 2.158-2.842 2.158-2.842s.749-.714.077-1.797c-.503-.809-2.018-2.188-2.436-2.082l-.001-.002z" fill="#050505"/><path d="M197.895 119.248c-.735 5.44-9.5 48.271-9.5 48.271s3.444.111 4.216-.22c.771-.33 9.124-20.179 12.874-32.64 3.75-12.46 5.626-17.753 2.317-20.399-3.311-2.648-9.2-.239-9.907 4.987v.001z" fill="url(#paint1_linear_1013_6842)"/><path d="M230.28 167.317s2.192-2.657 2.4-3.47c.177-.682-7.263-13.97-14.136-24.48 0 0-2.804-2.618-6.317.246-3.277 2.669-.935 5.816-.935 5.816a6069.718 6069.718 0 0118.988 21.889v-.001z" fill="url(#paint2_linear_1013_6842)"/><path d="M215.44 115.289s-11.358.365-9.928 5.441c.605 2.153 3.154 14.083 5.136 23.265 0 0 .769 3.567 4.8 2.814 4.709-.88 4.481-4.612 4.481-4.612-.179-2.41-.389-4.719-.632-6.805-1.512-12.924-3.857-20.104-3.857-20.104v.001z" fill="url(#paint3_linear_1013_6842)"/><path d="M208.632 88.932c3.417.243 4.363.875 4.971 3.918.607 3.045 3.233 25.528 3.233 25.528s-3.217 3.091-11.089 3.064c-7.875-.029-8.23-2.94-8.23-2.94s1.58-19.875 2.101-23.927c.45-3.501 1.224-5.75 5.402-6.002 2.351-.144 3.612.36 3.612.36z" fill="#FECD6C"/><path d="M200.471 78.961s-.476 6.063.911 7.274c1.386 1.21 3.638 0 3.638 0s.042 1.905 0 2.338c-.042.432-4.591 4.805-1.299 5.195 3.291.389 4.936-4.546 4.936-4.546l-.694-7.965s1.387-1.364.564-2.554c-.823-1.19-2.014.843-2.014.843l.064-3.311s-4.07 3.008-6.107 2.726h.001z" fill="#FFB680"/><path d="M209.559 88.751s-2.283 4.457-2.871 8.032c-1.125 6.846-3.97 29.936-3.641 30.601.331.66 5.641 1.32 10.261 0 4.617-1.323 5.073-4.413 5.073-4.413s-4.082-27.83-4.561-30.623c-.478-2.793-1.439-3.519-4.261-3.597zm-5.518-.219s-2.133 2.352-3.345 7.425c-1.214 5.073-1.551 15.712-2.442 20.73-.892 5.02-1.13 7.329-1.162 6.976-.175-1.903-.069-2.932.426-9.474.492-6.543 1.633-19.224 2.296-22.532.66-3.308 2.794-2.978 4.228-3.124l-.001-.001z" fill="#3C3A9A"/><path d="M227.046 117.349l2.155.415s3.2-15.645.831-19.97c-1.969-3.595-6.126-8.412-18.465-8.818-1.864-.061-3.058 7.232 2.153 7.793 7.502.807 8.577 1.3 10.749 3.301 3.186 2.936 2.576 17.28 2.576 17.28l.001-.001z" fill="#3C3A9A"/><path d="M191.264 116.16c-5.12 0-9.272 4.147-9.272 9.267 0 5.119 4.152 9.268 9.272 9.268h9.926V116.16h-9.926z" fill="#FECD6C"/><path style="mix-blend-mode:multiply" d="M201.189 116.16h-9.032v18.535h9.032V116.16z" fill="url(#paint4_linear_1013_6842)"/><path d="M226.982 116.16h-32.878v18.535h32.878V116.16z" fill="#164DDD"/><path style="mix-blend-mode:multiply" d="M226.982 122.264h-32.878v6.326h32.878v-6.326z" fill="url(#paint5_linear_1013_6842)"/><path d="M226.633 117.328s1.532.008 1.608 1.337c.078 1.328-.02 1.748-.02 1.748s-.159.466-.472.772c-.308.305-.731.253-.731.253l-.385-4.11z" fill="#FE7D7C"/><path d="M226.944 120.628c-.479-.241-2.114.328-2.353-.759-.238-1.088-.495-2.541.18-2.598.676-.056 2.17-.138 2.835.293.663.428-.133 2.678-.133 2.678l-.53.386h.001zm-42.746-2.812c-1.098 1.267-2.198 2.662-2.373 3.747-.176 1.084.155 1.982.707.684.55-1.3 1.218-2.184 1.422-2.094.202.089.388.727.721.583.391-.168-.114-1.387.227-2.058.34-.671-.704-.862-.704-.862z" fill="#FE7D7C"/><path d="M138.199 39.303l.342 7.254h-.867c-.168-1.278-.397-2.19-.685-2.738-.472-.882-1.099-1.532-1.883-1.95-.783-.418-1.814-.627-3.092-.627h-4.359v23.63c0 1.901.205 3.088.615 3.558.579.638 1.469.958 2.671.958h1.071v.843h-13.12v-.843h1.095c1.308 0 2.236-.396 2.783-1.186.335-.487.502-1.598.502-3.332V41.242h-3.719c-1.446 0-2.473.107-3.08.318-.792.29-1.468.844-2.03 1.666-.564.822-.899 1.931-1.005 3.33h-.867l.365-7.253h25.263z" fill="#54B0A5"/><path d="M183.387 39.051h-29.533v2.392h29.533V39.05zm0 5.205h-39.379v2.392h39.379v-2.392zm0 5.204h-39.379v2.393h39.379V49.46zm0 5.204h-39.379v2.391h39.379v-2.391zm0 10.411h-39.379v2.391h39.379v-2.391zm-.001 10.408h-73.652v2.392h73.652v-2.392zm0 5.205h-73.652v2.391h73.652v-2.391zm0 5.204h-73.652v2.391h73.652v-2.391zm0 5.205h-73.652v2.392h73.652v-2.392zm.001-20.817h-39.379v2.39h39.379v-2.39zm0-10.41h-39.379v2.39h39.379v-2.39z" fill="#DDD"/><path d="M76.323 95.922s2.773-3.107 4.837-8.515c2.063-5.408 1.06-13.047-3.068-14.05-4.129-1.002-9.93 1.618-10.486 6.859-.558 5.24 0 5.587 0 5.587s-8.999-.942-14.316 7.383c-5.318 8.327-2.4 12.508-2.4 12.508s-11.117 7.232-8.942 19.505c2.177 12.272 23.092 12.776 29.617-3.783 6.526-16.56 1.213-19.93 4.757-25.493h.001z" fill="#3C3A9A"/><path d="M92.595 97.36c10.034-3.485 18.207-8.186 18.207-8.186l1.719.895s-8.724 6.643-18.631 10.906c0 0-1.213.451-1.984-1.326-.726-1.675.587-2.255.587-2.255a2.93 2.93 0 01.102-.034z" fill="#FE7D7C"/><path d="M75.062 90.876s8.285 3.953 18.577 6.381c0 0 1.673.484 1.311 2.257-.383 1.881-2.052 1.512-2.052 1.512l-.12-.016c-9.835-1.593-18.613-5.484-19.466-7.36-.854-1.876.336-3.24 1.75-2.775v.001z" fill="#FE7D7C"/><path d="M84.956 93.287l-1.571 7.078s-8.175-2.117-11.213-4.303c-3.039-2.188-.791-9.463 3.738-6.824 4.79 2.792 9.046 4.05 9.046 4.05z" fill="#FECD6C"/><path d="M88.84 170.602S88.458 174 90.57 174c2.388 0 8.184.617 8.184-.283 0-1.856-3.181-2.855-5.396-3.466-2.215-.611-4.338-1.255-4.518.351z" fill="#050505"/><path d="M89.615 170.933c-1.025-3.93-3.146-10.371-3.166-10.433l1.896-.657c.089.253 2.16 6.232 3.203 10.237 0 0 6.71 1.827 5.774 2.367-.935.54-7.706-1.514-7.706-1.514h-.001z" fill="#FE7D7C"/><path d="M26.391 150.719s-2.096-.41-2.413 1.676c-.316 2.085-.88 8.029.348 8.362.915.249 2.025-3.183 2.593-5.408.569-2.225 1.08-4.481-.53-4.63h.002z" fill="#050505"/><path d="M25.962 151.274c3.646-1.793 9.53-5.163 9.588-5.196l1.026 1.726c-.232.137-5.672 3.365-9.389 5.192 0 0-1.338 6.034-1.966 6.032-.532 0 .741-7.754.741-7.754z" fill="#FE7D7C"/><path d="M79.298 117.412c3.128-5.673-8.244-8.576-11.648-4.079-2.342 3.097-7.482 13.515-11.046 20.818l4.215 5.114c3.346-1.288 18.479-21.853 18.479-21.853z" fill="#0D42BA"/><path d="M55.196 141.519a448.643 448.643 0 005.623-2.252l-3.098-7.338c-1.535 1.132-2.929 2.121-4.073 2.851-4.685 2.989-18.88 9.595-19.302 11.03-.422 1.435 1.26 4.19 1.674 4.119.41-.074 8.852-4.355 19.174-8.409l.002-.001z" fill="#0D42BA"/><path d="M73.059 87.147s3.617 1.598 4.174 2.307c2.164 2.76 4.194 13.966 5.343 23.499 1.05 8.715.333 12.196.333 12.196s-3.01 4.362-14.891 2.736c-11.343-1.552-11.044-5.565-11.044-5.565l16.085-35.172v-.001z" fill="#F5B327"/><path d="M79.94 116.668s4.737 17.662 6.912 28.534c2.175 10.873 3.43 15.973 3.43 16.391 0 .419-3.012 1.59-4.35.921-1.339-.669-5.623-16.726-5.991-16.977-.368-.252-12.76-25.178-13.27-29.942-.511-4.764 11.044-4.657 13.27 1.073z" fill="#164DDD"/><path d="M75.995 88.909s1.897.74 2.342 7.653c.446 6.914 1.228 13.828 1.786 19.179.265 2.549-5.308 3.841-10.061 2.007-2.442-.942-4.456-2.828-4.329-3.901.669-5.686 4.35-25.634 7.306-26.652 2.958-1.017 2.958 1.715 2.958 1.715l-.002-.001z" fill="#F5F5F5"/><path d="M73.06 87.147s-2.197-.246-3.201 3.601-6.776 14.134-12.131 19.737c-5.354 5.604-6.686 6.952-6.686 6.952s1.526 6.261 10.407 11.028c6.531 3.504 11.085 2.006 11.085 2.006s2.343-17.366 3.347-29.185c1.004-11.818 1.311-11.373.112-12.377-1.199-1.003-2.935-1.762-2.935-1.762h.001z" fill="#FECD6C"/><path d="M80.957 77.702s1.339 6.022-.502 8.475c-1.84 2.453-4.294-.391-4.46 0-.169.39 0 2.34 0 2.731s-2.958-.836-2.958-1.395.447-4.17.447-4.17 3.902-1.627 7.473-5.642v.001zm-26.229 6.607c-.495-10.607.91-20.57.91-20.57l-1.55-.631s-2.925 10.564-3.199 21.344c0 0 .032 1.291 1.966 1.346 1.827.05 1.877-1.383 1.877-1.383 0-.035-.004-.07-.005-.108l.001.002z" fill="#FE7D7C"/><path d="M71.836 89.801s-8.828-2.517-18.152-7.501c0 0-1.574-.745-2.477.825-.957 1.665.537 2.491.537 2.491.033.024.067.044.101.066 8.429 5.312 17.588 8.201 19.469 7.358 1.881-.842 1.892-2.651.523-3.238v-.001z" fill="#FE7D7C"/><path d="M62.82 85.064l-3.506 6.349s7.532 3.82 11.258 4.187c3.725.369 6.745-6.121 1.713-7.59a265.058 265.058 0 01-9.464-2.946z" fill="#FECD6C"/><path d="M65.137 87.255l-2.41 4.474-1.984-.533 2.183 1.096 2.83-5.26-2.477-.87 1.858 1.093z" fill="#F5B327"/><path d="M53.17 61.89s-.503 1.446.723 1.963c1.227.514 1.656.563 1.656.563s.492.005.886-.188c.388-.188.483-.604.483-.604L53.17 61.89zm56.667 26.225s-.503 1.446.723 1.96c1.225.516 1.656.564 1.656.564s.492.005.886-.186c.388-.19.483-.604.483-.604l-3.748-1.734z" fill="#FE7D7C"/><path d="M68.415 119.39l-2.27 2.68c-.43-.047-1.515-.234-2.885-.977-1.867-1.014-2.854-2.078-3.211-2.514l1.683-2.943-2.651 2.845-.008.252.075.117c.04.063 1.037 1.579 3.69 3.019 2.007 1.088 3.459 1.101 3.52 1.101h.123l.186-.099 1.748-3.48v-.001z" fill="#F5B327"/><path d="M115.656 90.815l-67.694-31.31 2.192-4.737 67.696 31.308 4.974 5.018-7.168-.279z" fill="#FED06E"/><path d="M120.242 90.991l2.582.103-1.82-1.834-.762 1.731z" fill="#F5B327"/><path style="mix-blend-mode:multiply" d="M48.627 58.069l67.695 31.307.769-1.662-67.694-31.308-.77 1.663z" fill="url(#paint6_linear_1013_6842)"/><path d="M49.91 54.658l-4.247-2.122-2.19 4.977 4.305 1.992 2.131-4.847z" fill="#FE7D7C"/><path d="M50.886 54.77l-1.8-.9-2.395 5.444 1.824.843 2.37-5.387z" fill="#F5B327"/><path d="M56.178 63.281c-.068-.531 1.016-1.881.07-2.47-.945-.587-2.232-1.314-2.51-.696-.28.616-.854 1.998-.67 2.767.184.77 2.57.77 2.57.77l.541-.372-.001.001z" fill="#FE7D7C"/><path d="M111.208 99.018v10.648h10.652V99.018h-10.652zm8.791 8.741h-6.928v-6.836h6.928v6.836z" fill="#76CEC1"/><path d="M116.562 107.2c-.399 0-.782-.158-1.065-.441l-5.276-5.274a1.507 1.507 0 112.132-2.13l4.21 4.208 7.225-7.22a1.506 1.506 0 112.131 2.13l-8.289 8.286a1.505 1.505 0 01-1.065.441h-.003z" fill="url(#paint7_linear_1013_6842)"/><path d="M116.562 107.2c-.399 0-.782-.158-1.065-.441l-5.276-5.274a1.507 1.507 0 112.132-2.13l4.21 4.208 7.225-7.22a1.506 1.506 0 112.131 2.13l-8.289 8.286a1.505 1.505 0 01-1.065.441h-.003z" fill="#54B0A5"/><path d="M173.166 99.018H129.33a.683.683 0 00-.684.683v1.025c0 .378.306.684.684.684h43.836a.684.684 0 00.684-.684v-1.025a.684.684 0 00-.684-.683zm7.178 4.451H129.33a.684.684 0 00-.684.684v1.025c0 .377.307.683.684.683h51.014a.683.683 0 00.683-.683v-1.025a.683.683 0 00-.683-.684zm-26.376 4.453H129.33a.684.684 0 00-.684.683v1.025c0 .378.307.683.684.683h24.638a.683.683 0 00.684-.683v-1.025a.683.683 0 00-.684-.683z" fill="#9AEFE1"/><path d="M111.208 114.542v10.646h10.652v-10.646h-10.652zm8.791 8.741h-6.928v-6.838h6.928v6.838z" fill="#76CEC1"/><path d="M116.562 122.724c-.399 0-.782-.159-1.065-.442l-5.276-5.274a1.507 1.507 0 012.132-2.13l4.21 4.209 7.225-7.221a1.506 1.506 0 112.131 2.13l-8.289 8.286a1.506 1.506 0 01-1.065.442h-.003z" fill="url(#paint8_linear_1013_6842)"/><path d="M116.562 122.724c-.399 0-.782-.159-1.065-.442l-5.276-5.274a1.507 1.507 0 012.132-2.13l4.21 4.209 7.225-7.221a1.506 1.506 0 112.131 2.13l-8.289 8.286a1.506 1.506 0 01-1.065.442h-.003z" fill="#54B0A5"/><path d="M173.166 114.542H129.33a.683.683 0 00-.684.683v1.025c0 .377.306.683.684.683h43.836a.684.684 0 00.684-.683v-1.025a.683.683 0 00-.684-.683zm7.178 4.452H129.33a.684.684 0 00-.684.683v1.025c0 .377.307.683.684.683h51.014a.683.683 0 00.683-.683v-1.025a.683.683 0 00-.683-.683zm-26.376 4.452H129.33a.684.684 0 00-.684.684v1.025c0 .377.307.683.684.683h24.638a.683.683 0 00.684-.683v-1.025a.684.684 0 00-.684-.684z" fill="#9AEFE1"/><path d="M111.208 130.064v10.647h10.652v-10.647h-10.652zm8.791 8.741h-6.928v-6.836h6.928v6.836z" fill="#76CEC1"/><path d="M116.562 138.247c-.399 0-.782-.158-1.065-.441l-5.276-5.274a1.507 1.507 0 012.132-2.13l4.21 4.209 7.225-7.221a1.504 1.504 0 012.131 0 1.505 1.505 0 010 2.13l-8.289 8.286a1.505 1.505 0 01-1.065.441h-.003z" fill="url(#paint9_linear_1013_6842)"/><path d="M116.562 138.247c-.399 0-.782-.158-1.065-.441l-5.276-5.274a1.507 1.507 0 012.132-2.13l4.21 4.209 7.225-7.221a1.504 1.504 0 012.131 0 1.505 1.505 0 010 2.13l-8.289 8.286a1.505 1.505 0 01-1.065.441h-.003z" fill="#54B0A5"/><path d="M173.166 130.064H129.33a.683.683 0 00-.684.683v1.025c0 .378.306.684.684.684h43.836a.684.684 0 00.684-.684v-1.025a.684.684 0 00-.684-.683zm7.178 4.453H129.33a.684.684 0 00-.684.683v1.025c0 .377.307.683.684.683h51.014a.683.683 0 00.683-.683V135.2a.683.683 0 00-.683-.683zm-26.376 4.452H129.33a.684.684 0 00-.684.684v1.025c0 .377.307.683.684.683h24.638a.683.683 0 00.684-.683v-1.025a.684.684 0 00-.684-.684z" fill="#9AEFE1"/><defs><linearGradient id="paint0_linear_1013_6842" x1="163.258" y1="33.243" x2="163.258" y2="101.326" gradientUnits="userSpaceOnUse"><stop stop-color="#DBDBDB"/><stop offset=".42" stop-color="#EBEBEB"/><stop offset="1" stop-color="#fff"/></linearGradient><linearGradient id="paint1_linear_1013_6842" x1="203.829" y1="121.179" x2="185.971" y2="170.364" gradientUnits="userSpaceOnUse"><stop stop-color="#A6E3FF"/><stop offset=".45" stop-color="#B8EAFE"/><stop offset="1" stop-color="#CCF3FE"/></linearGradient><linearGradient id="paint2_linear_1013_6842" x1="240.919" y1="156.128" x2="199.546" y2="148.346" gradientUnits="userSpaceOnUse"><stop stop-color="#A6E3FF"/><stop offset=".45" stop-color="#B8EAFE"/><stop offset="1" stop-color="#CCF3FE"/></linearGradient><linearGradient id="paint3_linear_1013_6842" x1="237.638" y1="150.496" x2="203.999" y2="122.678" gradientUnits="userSpaceOnUse"><stop stop-color="#A6E3FF"/><stop offset=".45" stop-color="#B8EAFE"/><stop offset="1" stop-color="#CCF3FE"/></linearGradient><linearGradient id="paint4_linear_1013_6842" x1="196.674" y1="154.024" x2="196.674" y2="113.868" gradientUnits="userSpaceOnUse"><stop stop-color="#F5B327"/><stop offset=".11" stop-color="#F5B838"/><stop offset=".34" stop-color="#F7C864"/><stop offset=".66" stop-color="#FBE1AC"/><stop offset="1" stop-color="#fff"/></linearGradient><linearGradient id="paint5_linear_1013_6842" x1="242.817" y1="125.428" x2="160.137" y2="125.428" gradientUnits="userSpaceOnUse"><stop stop-color="#86A2F3"/><stop offset=".39" stop-color="#BACAF8"/><stop offset=".8" stop-color="#EBF0FD"/><stop offset="1" stop-color="#fff"/></linearGradient><linearGradient id="paint6_linear_1013_6842" x1="-22.81" y1="23.075" x2="134.443" y2="97.269" gradientUnits="userSpaceOnUse"><stop stop-color="#F5B327"/><stop offset=".11" stop-color="#F5B838"/><stop offset=".34" stop-color="#F7C864"/><stop offset=".66" stop-color="#FBE1AC"/><stop offset="1" stop-color="#fff"/></linearGradient><linearGradient id="paint7_linear_1013_6842" x1="118.069" y1="103.192" x2="118.069" y2="94.892" gradientUnits="userSpaceOnUse"><stop stop-color="#A6E3FF"/><stop offset=".45" stop-color="#B8EAFE"/><stop offset="1" stop-color="#CCF3FE"/></linearGradient><linearGradient id="paint8_linear_1013_6842" x1="118.069" y1="118.715" x2="118.069" y2="110.417" gradientUnits="userSpaceOnUse"><stop stop-color="#A6E3FF"/><stop offset=".45" stop-color="#B8EAFE"/><stop offset="1" stop-color="#CCF3FE"/></linearGradient><linearGradient id="paint9_linear_1013_6842" x1="118.069" y1="134.238" x2="118.069" y2="125.94" gradientUnits="userSpaceOnUse"><stop stop-color="#A6E3FF"/><stop offset=".45" stop-color="#B8EAFE"/><stop offset="1" stop-color="#CCF3FE"/></linearGradient></defs></svg>