<svg width="377" height="477" fill="none" xmlns="http://www.w3.org/2000/svg"><g clip-path="url(#clip0_1000_6472)" fill="#D9D9D9"><path d="M170 217.819C170 170.981 131.939 133 85 133c-46.938 0-85 37.981-85 84.819v288.362C0 553.019 38.062 591 85 591c46.939 0 85-37.981 85-84.819" fill-opacity=".4"/><rect x="207" y="-65" width="170" height="458" rx="85" fill-opacity=".6"/><path opacity=".2" d="M377 515.819C377 468.981 338.939 431 292 431s-85 37.981-85 84.819v288.362C207 851.019 245.061 889 292 889s85-37.981 85-84.819"/><path d="M170-280.181C170-327.019 131.939-365 85-365c-46.938 0-85 37.981-85 84.819V8.181C0 55.02 38.062 93 85 93c46.939 0 85-37.98 85-84.82" fill-opacity=".6"/></g><defs><clipPath id="clip0_1000_6472"><path fill="#fff" d="M0 0h377v477H0z"/></clipPath></defs></svg>