<svg width="377" height="477" viewBox="0 0 377 477" fill="none" xmlns="http://www.w3.org/2000/svg">
<g clip-path="url(#clip0_1000_6472)">
<path d="M170 217.819C170 170.981 131.939 133 85 133C38.0615 133 -4.13084e-07 170.981 -4.13084e-07 217.819V506.181C-4.13084e-07 553.019 38.0615 591 85 591C131.939 591 170 553.019 170 506.181" fill="#D9D9D9" fill-opacity="0.4"/>
<rect x="207" y="-65" width="170" height="458" rx="85" fill="#D9D9D9" fill-opacity="0.6"/>
<path opacity="0.2" d="M377 515.819C377 468.981 338.939 431 292 431C245.061 431 207 468.981 207 515.819V804.181C207 851.019 245.061 889 292 889C338.939 889 377 851.019 377 804.181" fill="#D9D9D9"/>
<path d="M170 -280.181C170 -327.019 131.939 -365 85 -365C38.0615 -365 -4.13084e-07 -327.019 -4.13084e-07 -280.181V8.18079C-4.13084e-07 55.0195 38.0615 93 85 93C131.939 93 170 55.0195 170 8.18079" fill="#D9D9D9" fill-opacity="0.6"/>
</g>
<defs>
<clipPath id="clip0_1000_6472">
<rect width="377" height="477" fill="white"/>
</clipPath>
</defs>
</svg>
