<svg width="377" height="473" viewBox="0 0 377 473" fill="none" xmlns="http://www.w3.org/2000/svg">
<g clip-path="url(#clip0_1000_6408)">
<path d="M207 297.819C207 250.981 245.061 213 292 213C338.939 213 377 250.981 377 297.819V586.181C377 633.019 338.939 671 292 671C245.061 671 207 633.019 207 586.181" fill="#D9D9D9" fill-opacity="0.6"/>
<path d="M0 99.8193C0 52.9806 38.0615 15 85 15C131.939 15 170 52.9806 170 99.8193V388.181C170 435.019 131.939 473 85 473C38.0615 473 0 435.019 0 388.181" fill="#D9D9D9" fill-opacity="0.4"/>
<rect x="207" y="-262" width="170" height="434" rx="85" fill="#D9D9D9" fill-opacity="0.2"/>
</g>
<defs>
<clipPath id="clip0_1000_6408">
<rect width="377" height="473" fill="white"/>
</clipPath>
</defs>
</svg>
