<svg width="58" height="58" fill="none" xmlns="http://www.w3.org/2000/svg"><path d="M49.778 7H29C16.87 7 7 16.87 7 29a21.91 21.91 0 005.613 14.659l-5.255 5.254A1.221 1.221 0 008.223 51c.313 0 .625-.12.864-.358l5.255-5.255A21.905 21.905 0 0029 51c12.13 0 22-9.87 22-22V8.222C51 7.547 50.453 7 49.778 7zm-1.222 22c0 10.783-8.773 19.556-19.556 19.556a19.47 19.47 0 01-12.926-4.9l2.433-2.434H35.11a1.222 1.222 0 100-2.444H20.95l4.89-4.89H40a1.222 1.222 0 100-2.444H28.284l4.888-4.889h9.272a1.222 1.222 0 100-2.444h-6.827l7.69-7.691a1.221 1.221 0 10-1.728-1.728l-7.69 7.69v-6.827a1.222 1.222 0 10-2.445 0v9.272l-4.889 4.889V18a1.222 1.222 0 10-2.444 0v14.16l-4.89 4.89V22.888a1.222 1.222 0 10-2.444 0v16.605l-2.433 2.433A19.472 19.472 0 019.445 29C9.445 18.218 18.218 9.445 29 9.445h19.556V29z" fill="#424244"/></svg>