<svg id="Layer_1" data-name="Layer 1" xmlns="http://www.w3.org/2000/svg" viewBox="0 0 365.05 197.73"><g id="ART"><path d="M174.18 92.67h43.62v22.82H150V6.07h24.23zM246.93 30h-25.32V6.22h25.32zm-24.38 13.27h23.6v72.22h-23.6zm65.95-3.44v3.44h15.32V63H288.5v52.52h-23.61V63h-12.66V43.27h12.66v-4.22c0-23.92 11.41-34.55 34.71-34.55h4.84v21.89h-2c-10.35 0-13.94 2.81-13.94 13.44zM344.54 63v21.7c0 6.72 1.72 8.91 7.81 8.91H355v21.88h-9.85c-14.69 0-24.23-7-24.23-24.38V63h-14.06V43.27h14.07V14.35h23.61v28.92h14.85V63zM56 113.76c0 8.36-6.27 13.87-14.17 13.87s-14.13-5.51-14.13-13.87S34 99.89 41.87 99.89 56 105.4 56 113.76zm-20.74 0a6.27 6.27 0 005.85 6.65h.72a6.65 6.65 0 000-13.3 6.27 6.27 0 00-6.54 6v.68z" fill="#fff"/><path d="M80.32 109.85c0 5.35-3.19 9.38-10.79 9.38h-3.15v7.83h-7.22v-26.6h10.37c7.6 0 10.79 4.03 10.79 9.39zm-7.44 0c0-2-1.45-3-3.54-3h-3v6h3c2.09 0 3.54-.99 3.54-3zm27.7 10.6v6.61H83.06v-26.6h17v6.61h-9.78v3.16h8.55v6.27h-8.55v4zm29.14 6.61h-5.62l-12.54-14.29h-.08v14.29h-7.21v-26.6h5.62l12.54 14.29h.07v-14.29h7.22zM3.16 147.62c0-8.82 6.39-13.87 14.63-13.87a16.92 16.92 0 019.84 2.93l-3.8 6.19a9.64 9.64 0 00-5.81-2c-3.91 0-7.26 2.35-7.26 6.76s3.35 6.76 7.26 6.76a9.64 9.64 0 005.81-2l3.8 6.19a16.92 16.92 0 01-9.84 2.93c-8.24-.02-14.63-5.08-14.63-13.89z" fill="#4a4a4a"/><path d="M56.06 147.62c0 8.36-6.27 13.87-14.18 13.87S27.71 156 27.71 147.62s6.29-13.87 14.17-13.87 14.18 5.51 14.18 13.87zm-20.75 0a6.27 6.27 0 005.85 6.65h.72a6.65 6.65 0 000-13.3 6.25 6.25 0 00-6.57 5.93 4.33 4.33 0 000 .72z" fill="#fff"/><path d="M84.63 160.92H79l-12.53-14.29h-.08v14.29h-7.22v-26.6h5.63l12.54 14.29h.07v-14.29h7.22zm23.26-19.99h-6.65v20H94v-20h-6.63v-6.61h20.52zm16.79 19.99l-6.83-9.92v9.88h-7.22v-26.6H122c7 0 10 4.14 10 8.74a8 8 0 01-5.7 8l7.37 9.88zm-6.83-20.22v5.7H121c2.2 0 3.53-.91 3.53-2.88s-1.33-2.82-3.53-2.82zM154 155.94h-9l-1.63 5h-8l10.29-26.6h7.72l10.29 26.6h-8zm-1.82-5.7l-2.7-8.32-2.74 8.32zm10.97-2.62c0-8.82 6.39-13.87 14.63-13.87a16.92 16.92 0 019.84 2.93l-3.8 6.19a9.64 9.64 0 00-5.81-2c-3.91 0-7.26 2.35-7.26 6.76s3.35 6.76 7.26 6.76a9.64 9.64 0 005.81-2l3.8 6.19a16.92 16.92 0 01-9.84 2.93c-8.24-.02-14.63-5.08-14.63-13.89zm46.85-6.69h-6.65v20h-7.22v-20h-6.65v-6.61H210zm9.94 19.99h-7.22v-26.6h7.22zm30.06 0h-5.6l-12.53-14.29h-.08v14.29h-7.22v-26.6h5.62l12.54 14.29h.08v-14.29H250zM280.54 148c0 7.79-4.48 13.45-13 13.45-8.67 0-14.44-5.66-14.44-13.91 0-7.9 5.32-13.83 14.81-13.83a17.26 17.26 0 0110.64 3.42l-4.4 5.93a9.89 9.89 0 00-6.46-2.43c-4.37 0-7 2.85-7 7 0 3.87 2.35 7 7.18 7 3.42 0 5.05-1.52 5.35-3.34h-6.57v-6.08h13.72a24 24 0 01.17 2.79zM28.85 177.51c0 5.35-3.19 9.38-10.79 9.38H14.9v7.83H7.68v-26.6h10.38c7.6 0 10.79 4.03 10.79 9.39zm-7.45 0c0-2-1.44-3-3.53-3h-3v6h3c2.13 0 3.53-.99 3.53-3zm20.37-1.79l-6.19 19h-8l10.29-26.6h7.72l10.29 26.6h-8zm29.98 19l-6.84-9.88v9.88h-7.22v-26.6h11.36c7 0 10 4.14 10 8.74a8 8 0 01-5.7 8l7.38 9.88zm-6.84-20.21v5.69h3.16c2.2 0 3.53-.91 3.53-2.88s-1.33-2.81-3.53-2.81zm36.09.22h-6.68v20H87.1v-20h-6.64v-6.61H101zm28.17 19.99h-5.63L111 180.43h-.08v14.29h-7.22v-26.6h5.62l12.54 14.29h.14v-14.29h7.22zm22.15-6.61v6.61h-17.51v-26.6h16.94v6.61H141v3.16h8.55v6.27H141v4zm17.75 6.61l-6.84-9.88v9.88H155v-26.6h11.36c7 0 10 4.14 10 8.74a8 8 0 01-5.7 8l7.37 9.88zm-6.84-20.21v5.69h3.15c2.21 0 3.54-.91 3.54-2.88s-1.33-2.81-3.54-2.81zm37.43-4.72l-3.12 6.43a12.6 12.6 0 00-6.5-2.13c-1.14 0-1.63.3-1.63 1 0 .49.3.87 1.41 1.44l5.47 2.81c2.81 1.44 4.94 3.34 4.94 7.52 0 5.47-3.65 8.44-10.45 8.44a22.64 22.64 0 01-11.25-3l3.31-6.92c3.15 2.24 5.73 3.27 8.32 3.27 1.4 0 2.24-.3 2.24-1.18 0-.64-.46-1-1.29-1.4l-5.82-2.93a8.06 8.06 0 01-4.71-7.52c0-4.75 3.31-8.06 10-8.06a20.07 20.07 0 019.08 2.23zm27.39-1.67v26.6h-7.21v-10.34h-9.09v10.34h-7.21v-26.6h7.21v9.65h9.09v-9.65zm11.86 26.6h-7.22v-26.6h7.22zm25.8-17.21c0 5.35-3.19 9.38-10.79 9.38h-3.15v7.83h-7.22v-26.6h10.37c7.6 0 10.79 4.03 10.79 9.39zm-7.45 0c0-2-1.44-3-3.53-3h-3v6h3c2.09 0 3.53-1 3.53-3z" fill="#4a4a4a"/></g></svg>