<svg width="377" height="473" fill="none" xmlns="http://www.w3.org/2000/svg"><g clip-path="url(#clip0_1000_6408)" fill="#D9D9D9"><path d="M207 297.819C207 250.981 245.061 213 292 213s85 37.981 85 84.819v288.362C377 633.019 338.939 671 292 671s-85-37.981-85-84.819" fill-opacity=".6"/><path d="M0 99.82C0 52.98 38.062 15 85 15c46.939 0 85 37.98 85 84.82v288.36c0 46.839-38.061 84.82-85 84.82-46.938 0-85-37.981-85-84.819" fill-opacity=".4"/><rect x="207" y="-262" width="170" height="434" rx="85" fill-opacity=".2"/></g><defs><clipPath id="clip0_1000_6408"><path fill="#fff" d="M0 0h377v473H0z"/></clipPath></defs></svg>